<svg width="100" height="25" viewBox="0 0 100 25" fill="none" xmlns="http://www.w3.org/2000/svg">
<g clip-path="url(#clip0_1697_3509)">
<path d="M22.4303 8.46598C25.2452 8.46598 27.4822 8.84164 29.1896 9.31629L28.4357 3.77197C27.9281 0.0314739 23.1545 -1.23172 20.8625 1.76677L15.0424 9.38143C17.4565 8.76593 19.9389 8.45833 22.4303 8.46598ZM23.1359 6.26619C23.7239 7.10634 24.2527 7.49976 25.1081 8.01587C24.2789 7.94142 23.388 7.89742 22.4303 7.89742C21.6688 7.89742 20.9344 7.92534 20.2305 7.97357C21.5614 7.49384 22.2687 6.95828 23.1334 6.26619" fill="white"/>
<path d="M22.4303 8.46598C25.2452 8.46598 27.4822 8.84164 29.1896 9.31629L28.4357 3.77197C27.9281 0.0314739 23.1545 -1.23172 20.8625 1.76677L15.0424 9.38143C17.4565 8.76593 19.9389 8.45833 22.4303 8.46598ZM23.1359 6.26619C23.7239 7.10634 24.2527 7.49976 25.1081 8.01587C24.2789 7.94142 23.388 7.89742 22.4303 7.89742C21.6688 7.89742 20.9344 7.92534 20.2305 7.97357C21.5639 7.49215 22.2712 6.95405 23.1376 6.2645L23.1359 6.26619Z" fill="white"/>
<path d="M35.2559 0.100835C32.5823 0.100835 30.1693 2.30063 29.8749 4.94122C29.5804 7.58182 31.4596 9.63947 34.1898 9.63947L40.0582 9.6327C40.1752 9.63201 40.2878 9.67744 40.3716 9.75915C40.4554 9.84086 40.5036 9.95228 40.5058 10.0693C40.5058 10.1855 40.4596 10.297 40.3774 10.3792C40.2952 10.4614 40.1838 10.5075 40.0675 10.5075H39.9829L32.2997 10.5143C32.7184 10.7223 33.1171 10.9681 33.491 11.2487C33.491 11.2487 29.154 10.1082 22.069 10.1082C18.8558 10.0997 15.6466 10.3365 12.4694 10.8164C10.977 11.049 10.1461 11.2487 10.1461 11.2487C10.1461 11.2487 11.1986 10.6158 13.1294 9.95336L20.6721 0.100835H14.5576C14.2466 0.100136 13.9397 0.171327 13.6609 0.30885C13.382 0.446372 13.1387 0.646502 12.95 0.893606L10.658 3.88871L8.27292 0.100835H1.15997L6.76267 8.98461L2.10927 15.0628H8.22469C8.53558 15.0633 8.8424 14.992 9.12123 14.8545C9.40006 14.717 9.64338 14.517 9.83223 14.27L11.966 11.478C12.4339 11.3985 12.9906 11.3088 13.6328 11.2242L10.7003 15.0594H17.0146C17.2629 15.0595 17.5079 15.0023 17.7305 14.8922C17.9531 14.7822 18.1473 14.6222 18.298 14.4249L21.1569 10.6852C21.4564 10.6807 21.7605 10.6785 22.069 10.6785C22.3694 10.6785 22.6612 10.6784 22.954 10.6852L23.4058 14.0111C23.4453 14.3015 23.5887 14.5677 23.8094 14.7605C24.0302 14.9532 24.3133 15.0594 24.6064 15.0594H29.9671L40.8375 15.0543C43.511 15.0543 45.924 12.8546 46.2185 10.214C46.5129 7.57336 44.6363 5.51571 41.9052 5.51571L36.0351 5.52247H36.0284H36.0089C35.9879 5.5218 35.967 5.51982 35.9463 5.51655C35.9244 5.51174 35.9029 5.50524 35.882 5.49709L35.8668 5.49286C35.7708 5.45624 35.6907 5.38699 35.6407 5.29726C35.5906 5.20752 35.5737 5.10303 35.593 5.00211C35.6123 4.90118 35.6665 4.81027 35.7461 4.7453C35.8257 4.68033 35.9256 4.64545 36.0284 4.64679H45.2201C45.6277 4.64688 46.024 4.51242 46.3474 4.26429C46.6708 4.01615 46.9033 3.66821 47.0087 3.27446L47.8548 0.101682L35.2559 0.100835Z" fill="white"/>
<path d="M35.2559 0.100835C32.5823 0.100835 30.1693 2.30063 29.8749 4.94122C29.5804 7.58182 31.4596 9.63947 34.1898 9.63947L40.0582 9.6327C40.1752 9.63201 40.2878 9.67744 40.3716 9.75915C40.4554 9.84086 40.5036 9.95228 40.5058 10.0693C40.5058 10.1855 40.4596 10.297 40.3774 10.3792C40.2952 10.4614 40.1838 10.5075 40.0675 10.5075H39.9829L32.2997 10.5143C32.7184 10.7223 33.1171 10.9681 33.491 11.2487C33.491 11.2487 29.154 10.1082 22.069 10.1082C18.8558 10.0997 15.6466 10.3365 12.4694 10.8164C10.977 11.049 10.1461 11.2487 10.1461 11.2487C10.1461 11.2487 11.1986 10.6158 13.1294 9.95336L20.6721 0.100835H14.5576C14.2466 0.100136 13.9397 0.171327 13.6609 0.30885C13.382 0.446372 13.1387 0.646502 12.95 0.893606L10.658 3.88871L8.27292 0.100835H1.15997L6.76267 8.98461L2.10927 15.0628H8.22469C8.53558 15.0633 8.8424 14.992 9.12123 14.8545C9.40006 14.717 9.64338 14.517 9.83223 14.27L11.966 11.478C12.4339 11.3985 12.9906 11.3088 13.6328 11.2242L10.7003 15.0594H17.0146C17.2629 15.0595 17.5079 15.0023 17.7305 14.8922C17.9531 14.7822 18.1473 14.6222 18.298 14.4249L21.1569 10.6852C21.4564 10.6807 21.7605 10.6785 22.069 10.6785C22.3694 10.6785 22.6612 10.6784 22.954 10.6852L23.4058 14.0111C23.4453 14.3015 23.5887 14.5677 23.8094 14.7605C24.0302 14.9532 24.3133 15.0594 24.6064 15.0594H29.9671L40.8375 15.0543C43.511 15.0543 45.924 12.8546 46.2185 10.214C46.5129 7.57336 44.6363 5.51571 41.9052 5.51571L36.0351 5.52247H36.0284H36.0089C35.9879 5.5218 35.967 5.51982 35.9463 5.51655C35.9244 5.51174 35.9029 5.50524 35.882 5.49709L35.8668 5.49286C35.7708 5.45624 35.6907 5.38699 35.6407 5.29726C35.5906 5.20752 35.5737 5.10303 35.593 5.00211C35.6123 4.90118 35.6665 4.81027 35.7461 4.7453C35.8257 4.68033 35.9256 4.64545 36.0284 4.64679H45.2201C45.6277 4.64688 46.024 4.51242 46.3474 4.26429C46.6708 4.01615 46.9033 3.66821 47.0087 3.27446L47.8548 0.101682L35.2559 0.100835Z" fill="white"/>
<path d="M96.1377 18.5452C95.8441 18.3913 95.4524 18.349 94.9726 18.3481H91.6628L91.31 19.6629H94.377C94.6037 19.6629 94.7408 19.7044 94.8076 19.7543C94.8413 19.7813 94.8675 19.8165 94.8838 19.8564C94.9001 19.8964 94.9059 19.9399 94.9007 19.9827C94.8931 20.1096 94.8704 20.2352 94.833 20.3567L94.7112 20.8144C94.6333 21.1097 94.5242 21.3043 94.4058 21.4126C94.2873 21.5209 94.1223 21.5716 93.8296 21.5733H88.8031L89.9799 17.1788H88.4452L87.27 21.5733H85.1429C85.1807 21.475 85.2132 21.3748 85.2402 21.273L85.6565 19.7187H84.1217L83.8298 20.8085C83.7452 21.1055 83.6682 21.2967 83.5481 21.4058C83.428 21.515 83.2655 21.5683 82.9719 21.575H81.1029L81.9651 18.3506H80.4312L80.289 18.882H78.4784C77.8862 18.882 77.2465 18.9539 76.8328 19.1976C76.4191 19.4412 76.2219 19.8541 76.051 20.4912L75.8581 21.2104C75.7902 21.4206 75.7517 21.6393 75.7439 21.8602C75.7388 22.2502 75.9131 22.537 76.2126 22.6876C76.5122 22.8382 76.8988 22.8941 77.376 22.8958H93.7365C94.322 22.9008 94.8279 22.8205 95.2425 22.5759C95.6571 22.3314 95.9448 21.9152 96.1258 21.2789L96.4643 20.0233C96.5352 19.8142 96.5836 19.598 96.6089 19.3786C96.6248 19.2088 96.5884 19.0381 96.5047 18.8895C96.4209 18.7408 96.2937 18.6213 96.1402 18.5469M79.5707 21.5733L77.8447 21.5683C77.6417 21.5683 77.5164 21.5403 77.4581 21.4989C77.4239 21.481 77.3969 21.4519 77.3815 21.4165C77.3661 21.3811 77.3632 21.3415 77.3735 21.3043C77.4217 21.0251 77.5571 20.5217 77.6806 20.3905C77.8193 20.2425 78.1188 20.1959 78.442 20.1942H79.9354L79.5707 21.5733Z" fill="white"/>
<path d="M96.1377 18.5452C95.8441 18.3913 95.4524 18.349 94.9726 18.3481H91.6628L91.31 19.6629H94.377C94.6037 19.6629 94.7408 19.7044 94.8076 19.7543C94.8413 19.7813 94.8675 19.8165 94.8838 19.8564C94.9001 19.8964 94.9059 19.9399 94.9007 19.9827C94.8931 20.1096 94.8704 20.2352 94.833 20.3567L94.7112 20.8144C94.6333 21.1097 94.5242 21.3043 94.4058 21.4126C94.2873 21.5209 94.1223 21.5716 93.8296 21.5733H88.8031L89.9799 17.1788H88.4452L87.27 21.5733H85.1429C85.1807 21.475 85.2132 21.3748 85.2402 21.273L85.6565 19.7187H84.1217L83.8298 20.8085C83.7452 21.1055 83.6682 21.2967 83.5481 21.4058C83.428 21.515 83.2655 21.5683 82.9719 21.575H81.1029L81.9651 18.3506H80.4312L80.289 18.882H78.4784C77.8862 18.882 77.2465 18.9539 76.8328 19.1976C76.4191 19.4412 76.2219 19.8541 76.051 20.4912L75.8581 21.2104C75.7902 21.4206 75.7517 21.6393 75.7439 21.8602C75.7388 22.2502 75.9131 22.537 76.2126 22.6876C76.5122 22.8382 76.8988 22.8941 77.376 22.8958H93.7365C94.322 22.9008 94.8279 22.8205 95.2425 22.5759C95.6571 22.3314 95.9448 21.9152 96.1258 21.2789L96.4643 20.0233C96.5352 19.8142 96.5836 19.598 96.6089 19.3786C96.6248 19.2088 96.5884 19.0381 96.5047 18.8895C96.4209 18.7408 96.2937 18.6213 96.1402 18.5469M79.5707 21.5733L77.8447 21.5683C77.6417 21.5683 77.5164 21.5403 77.4581 21.4989C77.4239 21.481 77.3969 21.4519 77.3815 21.4165C77.3661 21.3811 77.3632 21.3415 77.3735 21.3043C77.4217 21.0251 77.5571 20.5217 77.6806 20.3905C77.8193 20.2425 78.1188 20.1959 78.442 20.1942H79.9354L79.5707 21.5733Z" fill="white"/>
<path d="M80.8787 16.4944H79.344L78.9911 17.8109H80.5259L80.8787 16.4944Z" fill="white"/>
<path d="M80.8787 16.4944H79.344L78.9911 17.8109H80.5259L80.8787 16.4944Z" fill="white"/>
<path d="M77.1484 17.8109H78.684L79.0368 16.4944H77.5012L77.1484 17.8109Z" fill="white"/>
<path d="M77.1484 17.8109H78.684L79.0368 16.4944H77.5012L77.1484 17.8109Z" fill="white"/>
<path d="M73.4138 18.5453C73.1194 18.393 72.7251 18.3464 72.2479 18.3464H69.0151L68.1487 21.5742H64.9192L65.7839 18.3481H64.2491L63.0308 22.8941C62.984 23.1078 62.8719 23.3018 62.7101 23.4491C62.5908 23.5566 62.4216 23.6065 62.128 23.6073H61.5874L61.2346 24.9221H62.0248C62.6171 24.9221 63.1247 24.8502 63.5376 24.6065C63.9505 24.3629 64.2644 23.9796 64.4454 23.3425L64.5656 22.8941H70.9957C71.588 22.8941 72.0956 22.8213 72.5077 22.5768C72.9197 22.3323 73.2412 21.9186 73.4231 21.284L73.7616 20.025C73.8304 19.8174 73.8705 19.6014 73.8809 19.3829C73.8868 18.9895 73.7116 18.7018 73.4121 18.5503M72.0144 20.817C71.9298 21.1182 71.8393 21.306 71.72 21.4143C71.6007 21.5226 71.4365 21.5759 71.1438 21.5776H69.6835L70.1911 19.6663H71.6624C71.89 19.6663 72.0508 19.712 72.1185 19.7645C72.1514 19.7879 72.1773 19.82 72.1934 19.8571C72.2095 19.8942 72.2152 19.935 72.2099 19.9751C72.1974 20.11 72.169 20.2429 72.1252 20.3711" fill="white"/>
<path d="M73.4138 18.5453C73.1194 18.393 72.7251 18.3464 72.2479 18.3464H69.0151L68.1487 21.5742H64.9192L65.7839 18.3481H64.2491L63.0308 22.8941C62.984 23.1078 62.8719 23.3018 62.7101 23.4491C62.5908 23.5566 62.4216 23.6065 62.128 23.6073H61.5874L61.2346 24.9221H62.0248C62.6171 24.9221 63.1247 24.8502 63.5376 24.6065C63.9505 24.3629 64.2644 23.9796 64.4454 23.3425L64.5656 22.8941H70.9957C71.588 22.8941 72.0956 22.8213 72.5077 22.5768C72.9197 22.3323 73.2412 21.9186 73.4231 21.284L73.7616 20.025C73.8304 19.8174 73.8705 19.6014 73.8809 19.3829C73.8868 18.9895 73.7116 18.7018 73.4121 18.5503M72.0144 20.817C71.9298 21.1182 71.8393 21.306 71.72 21.4143C71.6007 21.5226 71.4365 21.5759 71.1438 21.5776H69.6835L70.1911 19.6663H71.6624C71.89 19.6663 72.0508 19.712 72.1185 19.7645C72.1514 19.7879 72.1773 19.82 72.1934 19.8571C72.2095 19.8942 72.2152 19.935 72.2099 19.9751C72.1974 20.11 72.169 20.2429 72.1252 20.3711" fill="white"/>
<path d="M60.6094 18.3481L59.946 20.822C59.8614 21.1275 59.7768 21.3026 59.6541 21.4143C59.5314 21.526 59.3707 21.575 59.078 21.575H58.0398L58.7091 19.0766H57.1743L56.5042 21.575H54.8307L55.6954 18.3498H53.5167C52.9245 18.3498 52.4168 18.4217 52.0039 18.6662C51.591 18.9108 51.2949 19.338 51.1122 19.9751L50.3296 22.8975C50.2669 23.1369 50.1603 23.3349 50.0487 23.433C49.937 23.5312 49.7491 23.6082 49.4505 23.6098H45.3047L46.3462 19.7179H44.8089L43.4154 24.923H49.3464C49.9387 24.923 50.4463 24.8485 50.8592 24.6057C51.2721 24.3629 51.5817 23.9491 51.7518 23.3137L52.5361 20.3888C52.5773 20.1938 52.6781 20.0164 52.8246 19.8812C52.9439 19.7754 53.1072 19.7213 53.4008 19.7188H53.7925L53.4059 21.1639C53.3418 21.3732 53.3048 21.5898 53.2959 21.8086C53.2959 22.1546 53.4169 22.46 53.6783 22.6377C53.9397 22.8154 54.3036 22.8915 54.7841 22.8915H59.1203C59.6558 22.8915 60.1237 22.8069 60.5053 22.5658C60.8869 22.3247 61.194 21.8889 61.3564 21.2865L62.145 18.3456L60.6094 18.3481Z" fill="white"/>
<path d="M60.6094 18.3481L59.946 20.822C59.8614 21.1275 59.7768 21.3026 59.6541 21.4143C59.5314 21.526 59.3707 21.575 59.078 21.575H58.0398L58.7091 19.0766H57.1743L56.5042 21.575H54.8307L55.6954 18.3498H53.5167C52.9245 18.3498 52.4168 18.4217 52.0039 18.6662C51.591 18.9108 51.2949 19.338 51.1122 19.9751L50.3296 22.8975C50.2669 23.1369 50.1603 23.3349 50.0487 23.433C49.937 23.5312 49.7491 23.6082 49.4505 23.6098H45.3047L46.3462 19.7179H44.8089L43.4154 24.923H49.3464C49.9387 24.923 50.4463 24.8485 50.8592 24.6057C51.2721 24.3629 51.5817 23.9491 51.7518 23.3137L52.5361 20.3888C52.5773 20.1938 52.6781 20.0164 52.8246 19.8812C52.9439 19.7754 53.1072 19.7213 53.4008 19.7188H53.7925L53.4059 21.1639C53.3418 21.3732 53.3048 21.5898 53.2959 21.8086C53.2959 22.1546 53.4169 22.46 53.6783 22.6377C53.9397 22.8154 54.3036 22.8915 54.7841 22.8915H59.1203C59.6558 22.8915 60.1237 22.8069 60.5053 22.5658C60.8869 22.3247 61.194 21.8889 61.3564 21.2865L62.145 18.3456L60.6094 18.3481Z" fill="white"/>
<path d="M82.0912 23.6073L81.7383 24.9229H83.274L83.6259 23.6073H82.0912Z" fill="white"/>
<path d="M82.0912 23.6073L81.7383 24.9229H83.274L83.6259 23.6073H82.0912Z" fill="white"/>
<path d="M48.931 12.0567L49.1611 11.2106C49.387 10.3882 49.7271 9.95927 50.7966 9.95927H55.7326L56.1878 8.25781H50.8228C48.9944 8.25781 47.7702 8.71554 47.2388 10.653L46.6982 12.6667C46.1686 14.6042 47.1035 15.0763 48.931 15.0763H54.3577L54.8188 13.3757H49.7254C48.766 13.3757 48.6687 13.0127 48.931 12.0533" fill="white"/>
<path d="M48.931 12.0567L49.1611 11.2106C49.387 10.3882 49.7271 9.95927 50.7966 9.95927H55.7326L56.1878 8.25781H50.8228C48.9944 8.25781 47.7702 8.71554 47.2388 10.653L46.6982 12.6667C46.1686 14.6042 47.1035 15.0763 48.931 15.0763H54.3577L54.8188 13.3757H49.7254C48.766 13.3757 48.6687 13.0127 48.931 12.0533" fill="white"/>
<path d="M68.0582 12.6989C67.5277 14.6364 68.4812 15.0806 70.3113 15.0806H75.7084L76.1687 13.363H71.0922C70.1336 13.363 70.0287 13.0897 70.2918 12.1294L70.5033 11.3062C70.7284 10.483 71.0651 9.96266 72.1354 9.96266H77.0807L77.5351 8.27051H72.1616C70.3341 8.27051 69.1234 8.74008 68.5938 10.6767L68.0582 12.6989Z" fill="white"/>
<path d="M68.0582 12.6989C67.5277 14.6364 68.4812 15.0806 70.3113 15.0806H75.7084L76.1687 13.363H71.0922C70.1336 13.363 70.0287 13.0897 70.2918 12.1294L70.5033 11.3062C70.7284 10.483 71.0651 9.96266 72.1354 9.96266H77.0807L77.5351 8.27051H72.1616C70.3341 8.27051 69.1234 8.74008 68.5938 10.6767L68.0582 12.6989Z" fill="white"/>
<path d="M57.1472 8.26794L55.3222 15.0788H57.3503L59.1753 8.26879L57.1472 8.26794Z" fill="white"/>
<path d="M57.1472 8.26794L55.3222 15.0788H57.3503L59.1753 8.26879L57.1472 8.26794Z" fill="white"/>
<path d="M64.695 15.0764H66.7256L67.0234 13.9536C67.3212 12.8656 66.8855 12.5999 66.3144 12.4916L66.3186 12.473C67.3102 12.2539 67.6825 11.5423 67.9262 10.6523L68.0429 10.2292C68.367 9.04472 68.1605 8.26379 66.5978 8.26379H60.0374L58.2115 15.0764H60.2421L60.6999 13.3597H64.3244C64.9539 13.3597 65.1003 13.5873 64.9091 14.2828L64.695 15.0764ZM61.6094 9.95932H65.2238C65.8626 9.95932 66.1249 10.0211 65.965 10.6049L65.8888 10.9348C65.7585 11.4112 65.4836 11.7132 64.9361 11.7132H61.139L61.6094 9.95932Z" fill="white"/>
<path d="M64.695 15.0764H66.7256L67.0234 13.9536C67.3212 12.8656 66.8855 12.5999 66.3144 12.4916L66.3186 12.473C67.3102 12.2539 67.6825 11.5423 67.9262 10.6523L68.0429 10.2292C68.367 9.04472 68.1605 8.26379 66.5978 8.26379H60.0374L58.2115 15.0764H60.2421L60.6999 13.3597H64.3244C64.9539 13.3597 65.1003 13.5873 64.9091 14.2828L64.695 15.0764ZM61.6094 9.95932H65.2238C65.8626 9.95932 66.1249 10.0211 65.965 10.6049L65.8888 10.9348C65.7585 11.4112 65.4836 11.7132 64.9361 11.7132H61.139L61.6094 9.95932Z" fill="white"/>
<path d="M85.8596 12.6582L87.0441 8.26794H85.0135L83.9483 12.2183C83.719 13.0593 83.3264 13.3875 82.4956 13.3875H80.0462C79.2154 13.3875 79.003 13.0593 79.2331 12.2183L80.2975 8.26794H78.2669L77.0917 12.6599C76.6408 14.3047 77.2669 15.0881 79.1299 15.0881H82.4761C84.3375 15.0881 85.4035 14.303 85.8537 12.6582" fill="white"/>
<path d="M85.8596 12.6582L87.0441 8.26794H85.0135L83.9483 12.2183C83.719 13.0593 83.3264 13.3875 82.4956 13.3875H80.0462C79.2154 13.3875 79.003 13.0593 79.2331 12.2183L80.2975 8.26794H78.2669L77.0917 12.6599C76.6408 14.3047 77.2669 15.0881 79.1299 15.0881H82.4761C84.3375 15.0881 85.4035 14.303 85.8537 12.6582" fill="white"/>
<path d="M90.1475 8.26794H88.1194L86.2944 15.0805H88.3225L90.1475 8.26794Z" fill="white"/>
<path d="M90.1475 8.26794H88.1194L86.2944 15.0805H88.3225L90.1475 8.26794Z" fill="white"/>
<path d="M90.6052 9.96263H93.9971L92.6256 15.0797H94.6537L96.0251 9.96263H99.1548L99.6083 8.26794H91.0595L90.6052 9.96263Z" fill="white"/>
<path d="M90.6052 9.96263H93.9971L92.6256 15.0797H94.6537L96.0251 9.96263H99.1548L99.6083 8.26794H91.0595L90.6052 9.96263Z" fill="white"/>
<path d="M79.9286 6.89227L81.7536 0.0771484H79.7255L77.9005 6.89227H79.9286Z" fill="white"/>
<path d="M79.9286 6.89227L81.7536 0.0771484H79.7255L77.9005 6.89227H79.9286Z" fill="white"/>
<path d="M72.0406 5.12313H74.8513C75.4774 5.12313 75.6238 5.34904 75.4342 6.03774L75.2067 6.89227H77.2372L77.5528 5.71284C77.8489 4.63325 77.3963 4.37182 76.8294 4.26352V4.24491C77.8142 4.02747 78.1831 3.31423 78.4226 2.44023L78.5385 2.02312C78.8592 0.847076 78.6544 0.0771484 77.1052 0.0771484H71.3638L69.5371 6.89227H71.5677L72.0406 5.12313ZM72.9561 1.70838H75.7481C76.3801 1.70838 76.6484 1.81668 76.4901 2.39624L76.4055 2.72198C76.2769 3.19324 76.0045 3.49444 75.4613 3.49444H72.4781L72.9561 1.70838Z" fill="white"/>
<path d="M72.0406 5.12313H74.8513C75.4774 5.12313 75.6238 5.34904 75.4342 6.03774L75.2067 6.89227H77.2372L77.5528 5.71284C77.8489 4.63325 77.3963 4.37182 76.8294 4.26352V4.24491C77.8142 4.02747 78.1831 3.31423 78.4226 2.44023L78.5385 2.02312C78.8592 0.847076 78.6544 0.0771484 77.1052 0.0771484H71.3638L69.5371 6.89227H71.5677L72.0406 5.12313ZM72.9561 1.70838H75.7481C76.3801 1.70838 76.6484 1.81668 76.4901 2.39624L76.4055 2.72198C76.2769 3.19324 76.0045 3.49444 75.4613 3.49444H72.4781L72.9561 1.70838Z" fill="white"/>
<path d="M82.6496 6.89227C82.6496 6.89227 83.6022 3.3303 83.9237 2.15933C83.961 2.01888 84.1048 2.01973 84.1776 2.15341C84.5524 2.88103 85.538 4.52242 86.2081 5.60624C86.9155 6.74251 87.4129 6.88719 88.2108 6.88719H88.3445C89.0619 6.88719 89.941 6.40747 90.1458 5.68323L91.6475 0.0771454H89.617C89.617 0.0771454 88.6795 3.61458 88.3572 4.78893C88.3385 4.85746 88.1795 4.90061 88.1313 4.8177C87.7996 4.17722 86.6286 1.91905 86.1946 1.08736C85.7766 0.282742 84.9551 0.0720689 84.3755 0.0771454C83.9017 0.0771454 82.4583 0.0145363 81.9558 1.9072C81.6317 3.12724 80.6232 6.89227 80.6232 6.89227H82.6496Z" fill="white"/>
<path d="M82.6496 6.89227C82.6496 6.89227 83.6022 3.3303 83.9237 2.15933C83.961 2.01888 84.1048 2.01973 84.1776 2.15341C84.5524 2.88103 85.538 4.52242 86.2081 5.60624C86.9155 6.74251 87.4129 6.88719 88.2108 6.88719H88.3445C89.0619 6.88719 89.941 6.40747 90.1458 5.68323L91.6475 0.0771454H89.617C89.617 0.0771454 88.6795 3.61458 88.3572 4.78893C88.3385 4.85746 88.1795 4.90061 88.1313 4.8177C87.7996 4.17722 86.6286 1.91905 86.1946 1.08736C85.7766 0.282742 84.9551 0.0720689 84.3755 0.0771454C83.9017 0.0771454 82.4583 0.0145363 81.9558 1.9072C81.6317 3.12724 80.6232 6.89227 80.6232 6.89227H82.6496Z" fill="white"/>
<path d="M61.4114 6.88717L62.3573 5.64006H66.5411L66.8415 6.88717H69.1369C69.1369 6.88717 68.004 2.82602 67.5734 1.32762C67.2688 0.259028 66.2924 0.0991211 65.9574 0.0991211C64.5563 0.0991211 64.1561 0.696449 63.8422 1.04249C62.6619 2.48843 59.1042 6.88717 59.1042 6.88717H61.4114ZM65.3566 1.86911C65.4142 1.7845 65.5318 1.73796 65.5766 1.88011L66.1689 4.18989H63.5283C63.5283 4.18989 64.9015 2.44951 65.3583 1.86911" fill="white"/>
<path d="M61.4114 6.88717L62.3573 5.64006H66.5411L66.8415 6.88717H69.1369C69.1369 6.88717 68.004 2.82602 67.5734 1.32762C67.2688 0.259028 66.2924 0.0991211 65.9574 0.0991211C64.5563 0.0991211 64.1561 0.696449 63.8422 1.04249C62.6619 2.48843 59.1042 6.88717 59.1042 6.88717H61.4114ZM65.3566 1.86911C65.4142 1.7845 65.5318 1.73796 65.5766 1.88011L66.1689 4.18989H63.5283C63.5283 4.18989 64.9015 2.44951 65.3583 1.86911" fill="white"/>
<path d="M92.2762 6.88717L93.2213 5.64006H97.4042L97.7037 6.88717H100.001C100.001 6.88717 98.8663 2.82602 98.4365 1.32762C98.131 0.259028 97.1547 0.0991211 96.8205 0.0991211C95.4202 0.0991211 95.0183 0.696449 94.7053 1.04249C93.525 2.48843 89.9673 6.88717 89.9673 6.88717H92.2762ZM96.2197 1.86911C96.2764 1.7845 96.3949 1.73796 96.4389 1.88011C96.5869 2.45628 97.0311 4.18989 97.0311 4.18989H94.3914L96.2214 1.86911" fill="white"/>
<path d="M92.2762 6.88717L93.2213 5.64006H97.4042L97.7037 6.88717H100.001C100.001 6.88717 98.8663 2.82602 98.4365 1.32762C98.131 0.259028 97.1547 0.0991211 96.8205 0.0991211C95.4202 0.0991211 95.0183 0.696449 94.7053 1.04249C93.525 2.48843 89.9673 6.88717 89.9673 6.88717H92.2762ZM96.2197 1.86911C96.2764 1.7845 96.3949 1.73796 96.4389 1.88011C96.5869 2.45628 97.0311 4.18989 97.0311 4.18989H94.3914L96.2214 1.86911" fill="white"/>
<path d="M51.5563 2.16103C51.5563 2.16103 52.1528 4.79824 52.6055 6.07328C53.0581 7.34831 54.3915 7.07926 54.8053 6.62069C55.153 6.23657 58.0077 2.33532 58.0077 2.33532L56.7902 6.8872L58.8165 6.89228C58.8165 6.89228 59.9824 2.67291 60.1846 1.78791C60.4579 0.589028 59.3605 0.0839205 58.6541 0.0839205C58.1464 0.0839205 57.4992 0.0390791 56.7081 1.04168C56.3494 1.49686 54.1699 4.46997 54.1699 4.46997C54.1699 4.46997 53.5404 2.4597 53.1766 1.3598C52.8051 0.232831 51.6917 0.0906905 51.465 0.0906905C51.2382 0.0906905 50.1358 0.0500785 49.7525 1.3488C49.4505 2.39116 48.266 6.89228 48.266 6.89228H50.2965L51.5563 2.16103Z" fill="white"/>
<path d="M51.5563 2.16103C51.5563 2.16103 52.1528 4.79824 52.6055 6.07328C53.0581 7.34831 54.3915 7.07926 54.8053 6.62069C55.153 6.23657 58.0077 2.33532 58.0077 2.33532L56.7902 6.8872L58.8165 6.89228C58.8165 6.89228 59.9824 2.67291 60.1846 1.78791C60.4579 0.589028 59.3605 0.0839205 58.6541 0.0839205C58.1464 0.0839205 57.4992 0.0390791 56.7081 1.04168C56.3494 1.49686 54.1699 4.46997 54.1699 4.46997C54.1699 4.46997 53.5404 2.4597 53.1766 1.3598C52.8051 0.232831 51.6917 0.0906905 51.465 0.0906905C51.2382 0.0906905 50.1358 0.0500785 49.7525 1.3488C49.4505 2.39116 48.266 6.89228 48.266 6.89228H50.2965L51.5563 2.16103Z" fill="white"/>
<path d="M39.6826 24.9229H41.2182L41.5701 23.6073H40.0354L39.6826 24.9229Z" fill="white"/>
<path d="M39.6826 24.9229H41.2182L41.5701 23.6073H40.0354L39.6826 24.9229Z" fill="white"/>
<path d="M11.7012 20.8077C11.6166 21.1123 11.499 21.3026 11.3788 21.4109C11.2587 21.5192 11.0954 21.5734 10.8027 21.5734H9.71546L10.3864 19.0749H8.85078L8.18238 21.5691H6.46485L7.13663 19.0707H5.60016L4.74986 22.2485C4.67456 22.5024 4.58487 22.6665 4.46219 22.7638C4.33951 22.8611 4.17707 22.8882 3.92494 22.8899H2.09488C1.90874 22.8899 1.7886 22.8585 1.73107 22.8154C1.67353 22.7722 1.64646 22.7308 1.64646 22.6115C1.65007 22.51 1.66889 22.4096 1.7023 22.3137L2.39862 19.7137H0.862996L0.109144 22.5269C0.043565 22.732 0.00683137 22.9453 0 23.1606C0 23.5058 0.128605 23.7935 0.390041 23.972C0.651478 24.1505 1.01698 24.2258 1.49586 24.2258H3.92663C5.01383 24.2258 5.75753 23.7757 6.11119 22.8899H10.7003C11.2925 22.8899 11.8002 22.8137 12.2122 22.5692C12.6243 22.3247 12.9289 21.9109 13.1108 21.2747L13.703 19.0749H12.1665L11.7012 20.8077Z" fill="white"/>
<path d="M11.7012 20.8077C11.6166 21.1123 11.499 21.3026 11.3788 21.4109C11.2587 21.5192 11.0954 21.5734 10.8027 21.5734H9.71546L10.3864 19.0749H8.85078L8.18238 21.5691H6.46485L7.13663 19.0707H5.60016L4.74986 22.2485C4.67456 22.5024 4.58487 22.6665 4.46219 22.7638C4.33951 22.8611 4.17707 22.8882 3.92494 22.8899H2.09488C1.90874 22.8899 1.7886 22.8585 1.73107 22.8154C1.67353 22.7722 1.64646 22.7308 1.64646 22.6115C1.65007 22.51 1.66889 22.4096 1.7023 22.3137L2.39862 19.7137H0.862996L0.109144 22.5269C0.043565 22.732 0.00683137 22.9453 0 23.1606C0 23.5058 0.128605 23.7935 0.390041 23.972C0.651478 24.1505 1.01698 24.2258 1.49586 24.2258H3.92663C5.01383 24.2258 5.75753 23.7757 6.11119 22.8899H10.7003C11.2925 22.8899 11.8002 22.8137 12.2122 22.5692C12.6243 22.3247 12.9289 21.9109 13.1108 21.2747L13.703 19.0749H12.1665L11.7012 20.8077Z" fill="white"/>
<path d="M37.6376 24.9229H39.1724L39.5252 23.6073H37.9896L37.6376 24.9229Z" fill="white"/>
<path d="M37.6376 24.9229H39.1724L39.5252 23.6073H37.9896L37.6376 24.9229Z" fill="white"/>
<path d="M40.785 20.8093C40.7004 21.1292 40.6217 21.3026 40.5024 21.4109C40.3831 21.5192 40.2173 21.5725 39.9245 21.5733H15.8021L16.979 17.1788H15.4442L13.9154 22.8941H39.7875C40.3797 22.8941 40.8874 22.8171 41.2986 22.5742C41.7097 22.3314 42.0135 21.9152 42.1945 21.2798L42.6125 19.7179H41.0743L40.785 20.8093Z" fill="white"/>
<path d="M40.785 20.8093C40.7004 21.1292 40.6217 21.3026 40.5024 21.4109C40.3831 21.5192 40.2173 21.5725 39.9245 21.5733H15.8021L16.979 17.1788H15.4442L13.9154 22.8941H39.7875C40.3797 22.8941 40.8874 22.8171 41.2986 22.5742C41.7097 22.3314 42.0135 21.9152 42.1945 21.2798L42.6125 19.7179H41.0743L40.785 20.8093Z" fill="white"/>
</g>
<defs>
<clipPath id="clip0_1697_3509">
<rect width="100" height="24.8458" fill="white" transform="translate(0 0.0771484)"/>
</clipPath>
</defs>
</svg>
