<svg width="66" height="39" viewBox="0 0 66 39" fill="none" xmlns="http://www.w3.org/2000/svg">
<g clip-path="url(#clip0_1697_3492)">
<path d="M42.0771 6.02313C42.7778 5.94756 43.4246 5.61141 43.8891 5.08135C44.3535 4.55128 44.6019 3.86602 44.5848 3.16145C44.5833 2.75652 44.4942 2.35671 44.3235 1.98953C44.1527 1.62235 43.9045 1.29652 43.5958 1.03444C43.2871 0.772372 42.9253 0.580286 42.5353 0.471404C42.1453 0.362522 41.7363 0.339431 41.3365 0.403715C40.5922 0.4738 39.8991 0.813415 39.3876 1.35869C39.0145 1.75621 38.7857 2.26754 38.738 2.81064C38.4749 4.99994 40.5082 6.20503 42.0771 6.02313ZM41.8855 1.18328C43.0613 1.01438 44.0228 1.92063 44.0455 3.19718C44.078 5.11687 42.2525 5.8867 41.0312 4.99994C40.7732 4.79049 40.5652 4.52607 40.4225 4.22598C40.2798 3.92588 40.2059 3.5977 40.2062 3.26539C40.1964 2.07654 40.8136 1.33595 41.9017 1.18328H41.8855Z" fill="white"/>
<path d="M12.0636 18.6425C13.8179 16.4076 15.7586 14.3256 17.865 12.4189C18.2468 12.1389 18.5984 11.82 18.9141 11.4672C19.1415 11.1424 19.239 10.6941 19.4826 10.3725C19.9403 9.83958 20.4507 9.35422 21.006 8.92384C21.5299 8.44446 22.0808 7.99547 22.6561 7.57908C23.9099 6.72155 25.495 6.57538 27.2231 6.30578C27.2231 6.14662 27.0671 6.11088 27.0964 5.84778C27.1224 5.64639 27.4439 5.34756 27.6681 5.24686C28.028 5.14016 28.4054 5.10485 28.779 5.14292C30.7636 5.31182 33.0861 7.24127 33.6967 9.13497C34.2749 10.9182 32.6573 11.5257 31.0007 11.2918C31.8713 11.6816 33.3979 11.7141 33.8559 10.967C34.0507 10.5635 34.1175 10.1102 34.0476 9.66768C33.9436 8.30018 32.9529 7.25426 31.9849 6.45195C30.9033 5.55544 29.984 4.86032 28.5581 4.75638C27.7882 4.69791 27.0931 4.84733 26.843 5.28584C26.7261 5.49697 26.7326 5.95497 26.5896 6.09789C26.3915 6.30578 25.901 6.25381 25.4788 6.30903C23.4844 6.58188 22.1461 7.52386 20.9313 8.60551C20.4205 9.02862 19.9326 9.47859 19.4696 9.95352C19.1285 10.3368 18.9888 10.7851 18.6153 11.295C18.0858 12.0161 17.2575 12.5943 16.6176 13.244C15.9777 13.8936 15.2761 14.6245 14.646 15.2579C13.2932 16.5787 12.0945 18.0487 11.0729 19.6397C11.5569 19.5293 11.7843 18.9998 12.0636 18.6425Z" fill="white"/>
<path d="M25.6412 12.1396C25.966 12.0421 26.3525 11.5516 26.6579 11.2561C27.366 10.5772 27.9149 10.0607 28.623 9.41756C28.9641 9.11223 29.4253 8.81664 29.5748 8.4431C29.8086 7.84868 29.5748 7.04637 29.1298 6.88721C29.211 7.28349 29.4903 7.49137 29.4189 8.01758C29.3604 8.41387 28.8959 8.81664 28.5938 9.11223C27.8272 9.86257 27.327 10.2589 26.5929 10.9507C26.2843 11.2431 25.9173 11.727 25.547 11.8342C25.2709 11.9154 24.9656 11.8342 24.6602 11.9057C23.9651 12.0356 23.2473 12.4936 22.6301 12.8802C21.006 13.9358 19.8496 15.1961 18.5341 16.4532C18.284 16.6936 17.8617 16.9014 17.8357 17.2652C18.9369 16.4402 19.9276 15.4105 21.0092 14.4718C21.5461 14.0085 22.1078 13.5747 22.6918 13.1725C23.2505 12.7892 23.9651 12.2662 24.6602 12.198C25.011 12.1331 25.3358 12.25 25.6412 12.1396Z" fill="white"/>
<path d="M29.1297 9.87876C29.068 10.6453 28.623 10.9117 28.1813 11.2917C26.9697 12.3279 25.8653 13.4778 24.7544 14.5399C24.2964 14.9752 23.728 15.326 23.4551 15.9172C24.1925 15.5924 24.7901 14.9817 25.404 14.4328C26.8917 13.0782 28.3502 11.5094 30.0035 10.405C30.3283 10.1906 30.7896 10.0639 30.926 9.59292C30.3056 8.8166 29.8833 10.2718 29.1297 9.87876Z" fill="white"/>
<path d="M45.8223 15.0727C46.1764 15.9172 47.1216 16.7293 47.0274 17.5803C46.991 17.7673 46.8985 17.9387 46.7621 18.0716C46.6256 18.2045 46.4519 18.2926 46.2641 18.3242C45.7281 18.3859 45.3351 17.8986 44.7732 17.8304C43.7792 17.707 43.2043 18.6068 43.5064 19.6689C43.7662 20.5979 44.6108 21.4814 45.6307 21.4002C47.2191 21.2703 48.8789 19.7371 50.1035 18.9965C50.4468 19.3894 50.6868 19.8616 50.8018 20.3705C51.0097 21.2995 50.7824 22.4137 51.1819 23.2322C51.7926 24.4795 53.2153 24.0475 54.4301 23.7649C55.4403 23.5245 56.4278 23.2842 57.412 23.0601C57.9107 22.9051 58.4198 22.7857 58.9354 22.7027C60.0759 22.6156 61.218 22.8496 62.2323 23.3784C62.9144 23.7032 63.5933 24.1677 64.3274 24.2262C65.2174 24.2911 65.7014 23.5765 65.4383 22.5631C65.1752 21.5496 63.8142 21.384 62.9014 21.0072C62.3783 20.7531 61.8697 20.47 61.378 20.1594C59.8774 19.3181 58.3832 18.1423 56.5252 17.8857C56.2004 17.8467 55.7976 17.9311 55.5085 17.8174C54.9466 17.5933 54.9953 17.0898 54.8069 16.4727C54.6607 15.9822 54.3327 15.2156 53.7642 15.1312C53.5281 15.0923 53.2857 15.1356 53.0777 15.2538C52.8696 15.372 52.7083 15.5581 52.6208 15.7808C52.27 16.7748 53.3257 17.6323 53.0951 18.4996C52.4812 18.6165 52.2278 17.9214 52.0199 17.4406C51.5792 16.3213 51.2082 15.1757 50.909 14.0105C50.4608 12.5358 49.9638 10.5025 48.1773 10.7948C46.5954 11.0547 44.9421 12.9776 45.8223 15.0727ZM58.1331 19.1719C58.9711 19.6299 59.7832 20.1172 60.6374 20.5524C59.7824 20.7238 58.9103 20.7947 58.0389 20.7636C56.8825 20.7441 55.5312 20.481 54.7387 20.8675C54.2417 21.1144 54.0436 21.5496 53.5661 21.6471C53.3614 21.1728 53.7675 20.939 53.9786 20.6206C54.3034 20.1464 54.4106 19.6299 55.2162 19.7046C55.7067 19.7469 56.1419 20.1951 56.5479 20.2341C57.3275 20.3088 57.6946 19.7209 58.1428 19.1719H58.1331ZM52.4844 19.2077C53.0106 19.4058 53.6408 19.2077 53.7837 18.7139C54.1085 17.6128 53.1048 17.0281 53.2445 16.0277C54.0598 15.4203 54.1573 17.1321 54.4171 17.6875C54.9466 18.8276 56.1841 18.5028 57.399 18.8536C57.3617 19.0115 57.2812 19.156 57.1664 19.2707C57.0517 19.3855 56.9073 19.466 56.7493 19.5033C56.2848 19.5617 55.8756 19.0225 55.2616 18.9738C54.3132 18.8958 53.9819 19.2986 53.5466 19.997C53.316 20.3705 53.0139 20.6142 52.8969 20.9195C52.7118 21.4717 52.8807 22.3649 53.4719 22.4364C54.1962 22.5209 54.5243 21.6666 55.122 21.4847C55.5735 21.345 56.2361 21.4847 56.8013 21.4847C57.9479 21.4847 59.075 21.5204 60.1632 21.4132C60.4133 21.3905 60.6862 21.3353 60.959 21.3093C61.2199 21.2571 61.4855 21.232 61.7516 21.2346C62.0537 21.28 62.3363 21.5951 62.5766 21.6958C63.3594 22.0206 64.3047 22.1213 64.7627 22.7905C64.7627 23.0438 64.8049 23.3524 64.6717 23.4628C63.8109 23.5375 63.1028 23.0211 62.398 22.6833C61.443 22.2383 60.1242 21.777 58.656 22.0141C57.7173 22.1635 56.7266 22.4624 55.7684 22.6833C55.2941 22.7937 54.7939 22.9269 54.3392 23.0373C53.8692 23.1808 53.3921 23.3001 52.9099 23.3946C51.4645 23.557 51.6107 22.2025 51.5165 20.7766C51.4829 20.2274 51.3193 19.6941 51.039 19.2207C50.7791 18.7269 50.4575 18.4768 50.2139 18.0546C50.0548 17.7785 49.9443 17.4049 49.7689 17.0281C49.6845 16.843 49.2914 16.3557 49.4214 15.8977C49.535 15.5047 50.2237 15.4982 50.4998 15.1896C50.9967 16.2161 51.3833 18.7919 52.4844 19.2077ZM46.2641 13.4843C46.3875 12.6235 47.7063 11.1261 48.8334 11.5744C49.7657 11.9382 49.9703 13.3869 50.3244 14.4003C49.7397 14.9525 48.6385 14.9785 48.7717 16.2745C48.8497 17.0574 49.5123 17.733 49.6585 18.4281C48.7847 19.016 47.7258 19.8736 46.5532 20.377C46.1667 20.5427 45.6112 20.7506 45.2182 20.6596C44.5685 20.5135 44.0033 19.604 44.1398 18.7107C44.8869 18.3177 45.4001 19.055 46.1374 19.0615C46.3569 19.0563 46.5729 19.0053 46.7714 18.9116C46.97 18.8179 47.1467 18.6836 47.2903 18.5174C47.4338 18.3513 47.5409 18.1569 47.6047 17.9468C47.6685 17.7368 47.6877 17.5156 47.6608 17.2977C47.5845 16.797 47.4113 16.316 47.1509 15.8815C46.7741 15.1994 46.0919 14.7316 46.2641 13.4843Z" fill="white"/>
<path d="M44.2989 16.2387C44.5653 16.2128 44.9291 16.3005 45.1564 16.0633C45.0817 15.8457 44.7959 15.9432 44.6172 15.9561C42.1778 16.1348 39.615 16.2615 37.0327 16.7325C35.3242 17.0533 33.639 17.4874 31.9882 18.0318C31.5107 18.1844 30.6889 18.4703 30.6564 18.8795C30.6239 19.2206 30.9812 19.5682 31.0689 19.854C31.3937 20.9714 30.926 21.9653 31.0982 23.1802C31.6081 23.3263 32.274 23.1802 32.7807 23.1087C32.2675 23.0145 31.7088 22.9983 31.6406 22.4591C31.5886 22.0985 31.8517 21.6892 31.894 21.2605C31.9849 20.286 31.5691 19.5682 31.5432 18.7821C33.4466 17.9343 35.6294 17.4211 37.9194 16.9436C39.9301 16.5636 42.1518 16.4401 44.2989 16.2387Z" fill="white"/>
<path d="M6.3825 21.4002C6.67484 21.4456 7.13609 21.4424 7.17506 21.2215C7.25302 20.7992 6.61962 20.9552 6.47995 20.9422C6.10411 20.8867 5.76022 20.6995 5.50971 20.4139C5.2592 20.1283 5.1184 19.7629 5.11245 19.383C5.07319 19.0215 5.14319 18.6565 5.31342 18.3352C5.48364 18.0138 5.74628 17.7509 6.06742 17.5803C6.32403 17.4503 7.1036 17.3107 7.11335 17.0541C7.12309 16.7974 6.96068 16.8202 6.70083 16.8397C6.12534 16.8858 5.58895 17.1491 5.20047 17.5762C4.812 18.0033 4.60053 18.5621 4.60898 19.1394C4.61223 20.3153 5.44701 21.2605 6.3825 21.4002Z" fill="white"/>
<path d="M9.0493 21.4002C9.94905 21.3255 10.8131 20.8642 11.6836 20.5134C13.3628 19.7783 15.0779 19.1278 16.8223 18.5645C17.7832 18.2362 18.7889 18.0576 19.8041 18.035C19.9635 18.0195 20.1239 18.0517 20.265 18.1274C20.4061 18.2032 20.5216 18.3191 20.5967 18.4606C21.0255 19.5714 19.8659 21.5658 20.7883 22.3811C20.7883 22.0563 20.7721 21.7315 20.7883 21.4067C20.8436 20.3835 21.4542 18.5612 20.8501 17.8336C20.5252 17.4569 19.6417 17.4861 19.1383 17.5478C16.1044 17.9408 13.7495 19.1264 11.3653 20.3088C10.511 20.7311 9.63073 21.1338 8.6985 21.1533C8.35094 21.1533 8.18528 20.9812 7.93842 21.2605C8.28708 21.4147 8.67331 21.4633 9.0493 21.4002Z" fill="white"/>
<path d="M25.482 23.6967C26.9015 23.557 28.4411 22.2837 28.9089 21.1858C29.1226 20.6601 29.2105 20.0917 29.1655 19.526C29.0193 18.2267 27.9247 17.6875 26.7521 17.7589C25.8683 17.7865 25.0195 18.1102 24.3419 18.6782C23.7091 19.2099 23.2367 19.9072 22.9776 20.6921C22.4124 22.7774 23.8352 23.8558 25.482 23.6967ZM23.9294 19.7371C24.1838 19.348 24.5182 19.0176 24.9102 18.7678C25.3023 18.5181 25.743 18.3546 26.2031 18.2884C27.5771 18.1065 28.9511 19.068 28.4769 20.835C28.0578 22.4169 25.8328 23.9533 24.2542 22.9203C24.0181 22.7549 23.8216 22.5392 23.6789 22.2887C23.5363 22.0381 23.451 21.7591 23.4291 21.4716C23.4218 20.8569 23.5958 20.2535 23.9294 19.7371Z" fill="white"/>
<path d="M2.16308 23.8753C3.00437 23.95 3.98533 23.8396 4.98578 23.8396C7.33099 23.8396 9.8581 23.8753 12.1319 23.8753C13.0186 23.8753 13.8502 24.0897 14.2887 23.5895C10.9073 23.4628 6.78854 23.4433 3.28047 23.3069C2.76725 23.2874 2.07863 23.3816 1.75706 23.2029C1.36077 22.9821 1.26008 22.3259 1.37701 21.79C1.61088 20.7083 2.6763 19.9222 3.53383 19.5162C3.75471 19.4123 4.13799 19.3506 4.13799 18.9868C4.01781 18.8276 3.8554 18.9575 3.78719 18.9868C2.66656 19.513 0.945003 20.442 0.772848 21.9913C0.649416 23.0275 1.26658 23.7941 2.16308 23.8753Z" fill="white"/>
<path d="M22.786 31.2227H20.2784C19.6125 31.2227 18.2125 31.4339 18.0274 30.8979C17.9072 30.5731 18.1898 29.9234 18.2807 29.6246C18.4236 29.1634 18.5568 28.7411 18.664 28.387C18.9584 27.5791 19.1695 26.7432 19.2942 25.8924C19.0181 25.6845 18.4269 25.7462 18.0891 25.8599C17.7025 26.5355 17.5011 27.5945 17.2348 28.5462C16.9977 29.3842 16.78 30.7712 16.2181 31.0895C15.8186 31.3169 14.0515 31.3397 13.8696 31.0181C13.6877 30.6965 13.9541 30.0599 14.0613 29.7188C14.4836 28.3838 14.8441 27.2404 15.1397 25.8989C14.7532 25.7625 14.2107 25.6618 13.9021 25.8989C13.5935 26.136 13.5773 26.7402 13.4571 27.1754C13.0868 28.5235 12.5639 30.0144 12.317 31.2357H9.80938C9.18248 31.2357 7.78249 31.4566 7.59084 30.9564C7.47716 30.664 7.68505 30.1443 7.77925 29.8227C8.12681 28.6534 8.50034 27.8024 8.60429 26.4998C8.3022 25.6261 6.72033 25.691 5.40155 25.7625C4.83636 25.7885 3.1278 25.652 2.80298 25.8664C2.47816 26.0808 2.40345 26.8864 2.26703 27.3833C2.09812 27.9908 1.92272 28.5072 1.78954 28.9782C1.42591 30.0632 1.13935 31.1725 0.932007 32.2979C1.3023 32.3304 1.78953 32.4993 2.10786 32.2979C2.37096 32.129 2.47491 31.4144 2.5821 31.0246C2.96864 29.6214 3.41689 28.1012 3.78719 26.9611C4.16723 26.9838 4.4953 26.8701 4.80388 26.9968C4.34264 28.7931 3.71248 30.4009 3.34219 32.2979C3.71898 32.2979 4.1315 32.4993 4.4888 32.3336C4.78114 32.1939 4.88183 31.4923 4.99227 31.096C5.38856 29.6831 5.84006 28.1044 6.23309 26.9611C6.58065 26.9611 6.9477 26.8441 7.14909 27.065C7.05489 28.2149 6.46046 29.3388 6.19736 30.3879C5.87254 31.6872 6.36951 32.2816 7.46741 32.3693C8.73746 32.47 10.6572 32.4116 11.8168 32.4018C11.995 32.4179 12.1745 32.3948 12.3428 32.3342C12.5111 32.2736 12.6642 32.1769 12.7912 32.051C13.7657 32.613 15.9875 32.5188 16.9165 31.9796C17.3225 32.3661 18.0014 32.4181 18.6608 32.4018C19.8691 32.3791 21.3145 32.3466 22.5294 32.3693C22.4711 32.2101 22.4609 32.0373 22.5001 31.8724C22.5521 31.5475 22.8087 31.3364 22.786 31.2227Z" fill="white"/>
<path d="M50.8343 32.3889C52.1174 32.3889 53.4329 32.3597 54.3229 32.3207C54.4374 32.1784 54.5217 32.0143 54.5709 31.8384C54.62 31.6626 54.6329 31.4785 54.6087 31.2975C53.4654 31.1513 51.8413 31.2228 50.516 31.2228C50.0612 31.2228 49.5415 31.3365 49.2459 31.0474C49.4019 30.3653 49.5935 29.7124 49.8176 28.9653C50.019 28.2897 50.425 27.601 50.3244 26.8052C50.1944 25.7301 48.7685 25.7138 47.6901 25.7496C46.8553 25.7723 46.1114 25.899 45.6307 26.24C44.2859 27.1885 44.3314 29.6961 43.5681 31.2228H36.7046C36.1979 31.2228 34.9018 31.4339 34.7069 30.9434C34.5738 30.6024 34.8564 30.1476 34.9278 29.917C35.0837 29.4265 35.0967 29.1732 35.1844 28.8581C35.3371 28.2832 35.5093 27.3347 36.0062 27.0521C36.5032 26.7695 37.3542 26.9352 38.1663 26.9481C39.3681 26.9709 40.2744 27.0976 40.1964 25.886C39.7547 25.7041 39.222 25.782 38.673 25.782C36.6656 25.782 35.1357 25.6294 34.3886 27.1235C34.1318 27.7544 33.9307 28.4065 33.7877 29.0725C33.5407 29.7342 33.3696 30.4218 33.2777 31.1221C33.3687 31.2715 33.7195 31.1221 33.7552 31.3365C33.7622 31.5583 33.707 31.7777 33.5961 31.9699C33.3524 31.8529 33.294 31.5281 33.2485 31.1936C31.6991 31.1936 29.8541 31.3008 28.2657 31.1578C28.3697 30.3783 29.055 29.6766 28.5906 28.9296C28.2397 28.3741 27.0639 28.5073 26.2096 28.5073C25.7484 28.5073 25.0598 28.5723 24.972 28.3286C24.8843 28.085 25.1085 27.705 25.1637 27.5556C25.2644 27.2632 25.3423 27.0293 25.5437 26.9514C25.9498 26.789 26.7716 26.9514 27.4927 26.9514C28.792 26.9514 29.8801 27.2307 29.7664 25.8892C29.4676 25.6976 29.1168 25.821 28.792 25.821C27.1354 25.821 25.1377 25.4085 24.2867 26.4707C24.063 26.805 23.9012 27.1769 23.8092 27.5686C23.6268 27.9777 23.5307 28.4199 23.5266 28.8678C23.6825 30.2743 26.2031 29.3096 27.2361 29.7871C27.1484 30.2256 27.1419 30.9402 26.7943 31.1643C26.4467 31.3885 25.6574 31.2325 25.05 31.2325H23.2407C23.3869 31.4697 23.2213 31.9244 23.1141 32.1161C23.0556 32.2232 22.9159 32.3207 22.9874 32.3662H30.6337C31.488 32.3662 32.4332 32.5123 33.203 32.3662C33.4271 32.3239 33.5278 32.181 33.7097 32.0413C34.1028 32.3857 34.8076 32.3954 35.4573 32.3922C38.2897 32.3922 41.7588 32.3564 44.5945 32.3239C44.9616 31.9991 44.8706 31.1936 45.1662 30.8038H47.9272C47.3035 32.6812 49.4538 32.3889 50.8343 32.3889ZM45.4748 29.6669C45.7996 28.9458 45.8158 27.3184 46.5564 26.9839C46.7687 26.9311 46.9874 26.9081 47.2061 26.9157C47.69 26.8767 48.6158 26.7792 48.8302 27.1235C49.0446 27.4679 48.71 28.098 48.6093 28.3968C48.4469 28.8841 48.3689 29.2284 48.2585 29.6669H45.4748Z" fill="white"/>
<path d="M55.9113 32.2849C58.7145 32.4246 61.875 32.3564 64.7334 32.3206C64.9998 32.1712 65.081 31.632 65.0582 31.2585C62.739 31.1415 59.9618 31.3039 57.5386 31.1903C58.0096 29.813 58.3247 28.2669 58.8379 26.9481C59.4258 26.7759 60.2152 27.1755 60.7089 26.9156C60.8643 26.7971 60.9849 26.639 61.058 26.4578C61.1312 26.2766 61.1542 26.0791 61.1247 25.8859C60.5335 25.6585 59.5753 25.782 58.617 25.782C57.6588 25.782 56.6389 25.6585 55.9827 25.7495C55.5053 25.8112 55.4305 26.3991 55.4143 26.8409C55.9178 27.0845 56.8728 26.8409 57.3795 26.9838C57.1424 27.8803 56.863 28.7346 56.6194 29.5824C56.3104 30.4625 56.0736 31.3663 55.9113 32.2849Z" fill="white"/>
<path d="M60.8908 37.6575C60.9576 36.3024 60.9478 34.9447 60.8615 33.5907C60.5496 33.4935 60.2137 33.5061 59.9098 33.6264C59.8221 34.3215 59.9326 35.2343 59.8449 35.9262C59.1595 35.8645 58.2402 36.0626 57.7498 35.7833C57.727 35.0686 57.8082 34.2338 57.688 33.6264C57.4347 33.529 56.9669 33.4543 56.7363 33.6264C56.7363 34.5294 56.496 35.9002 56.9572 36.4556C57.5809 37.2157 58.9061 36.5108 59.8806 36.8097C59.8806 37.1345 59.9131 37.4821 59.7864 37.6575C58.6788 37.6575 57.5126 37.6932 56.3563 37.6932C55.1999 37.6932 54.0241 37.7744 52.9944 37.586C52.8222 36.1925 53.3614 34.3898 52.4259 33.7694C51.8672 33.3991 49.8014 33.3958 49.2492 33.8051C48.4014 34.432 48.9504 36.3647 48.71 37.7029H46.904C46.3583 37.7029 45.5332 37.8589 45.1889 37.56C44.8446 37.2612 45.0168 36.212 45.033 35.6533C45.0766 34.9685 45.0549 34.2811 44.968 33.6005C44.6595 33.6005 44.3184 33.4543 44.0488 33.6005C43.9603 34.4226 43.9494 35.2514 44.0163 36.0756C44.0521 36.9396 44.0878 37.8978 43.1913 37.6672C43.162 36.3354 43.2595 34.8575 43.1296 33.6362C42.8697 33.5517 42.402 33.4478 42.1746 33.6362C42.0641 34.903 42.2428 36.4946 42.0804 37.7029C41.9538 37.7345 41.8203 37.724 41.7002 37.6731C41.58 37.6221 41.4797 37.5334 41.4145 37.4203C40.9922 36.6148 41.5834 34.6496 41.2878 33.6362C41.028 33.5777 40.6219 33.4445 40.3653 33.6005C40.2159 34.1786 40.3004 34.877 40.2744 35.5819C40.2484 36.2867 40.3231 37.0143 40.3361 37.6672C39.0173 37.6672 37.7375 37.7257 36.3993 37.7029C36.6299 36.8616 36.7013 34.8315 36.2726 34.1689C35.6782 33.2464 33.7357 33.6004 32.404 33.6362C32.2351 34.9972 32.4364 36.3387 32.3098 37.7029H29.198C28.0968 37.7029 26.9242 37.8264 26.0894 37.7387C25.482 37.677 25.3488 37.1605 25.4853 36.4654C26.359 36.4459 27.2263 36.5726 28.0254 36.4296C28.1162 36.19 28.1162 35.9254 28.0254 35.6858C27.3497 35.4519 26.2583 35.7378 25.456 35.5819C25.4374 35.193 25.4472 34.8032 25.4853 34.4157C26.5084 34.4157 27.5934 34.4547 28.5646 34.3833C28.6507 34.1294 28.6507 33.8543 28.5646 33.6005C27.366 33.5225 25.7679 33.5582 24.4718 33.6005C24.3844 34.9663 24.3736 36.3359 24.4393 37.7029H21.2983C20.1679 37.7029 19.0246 37.8231 18.1573 37.7387C17.5076 37.6737 17.3842 37.1085 17.5564 36.4654C18.4269 36.4654 19.2942 36.5661 20.0932 36.4296C20.1792 36.1892 20.1792 35.9263 20.0932 35.6858C19.4014 35.4714 18.3944 35.6858 17.5239 35.6176C17.5434 35.1693 17.4394 34.7795 17.5564 34.4157C18.5763 34.4157 19.6612 34.4547 20.6324 34.3833C20.7105 34.1404 20.7105 33.8791 20.6324 33.6362C20.0705 33.4835 19.3331 33.568 18.6023 33.568C17.9033 33.5271 17.2021 33.5499 16.5072 33.6362C16.426 34.8023 16.478 36.3972 16.5072 37.6672C14.175 37.651 11.8233 37.7712 9.55927 37.6315C9.54123 37.3485 9.55211 37.0644 9.59175 36.7837C10.5077 36.6408 11.9435 37.0728 12.4794 36.4589C12.8627 36.0204 12.8854 34.4287 12.5411 33.9513C12.239 33.529 11.3978 33.5257 10.6702 33.5257C9.97009 33.4976 9.2689 33.5323 8.57506 33.6297C8.44513 34.799 8.63353 36.3874 8.51334 37.6607C7.2368 37.6607 5.94401 37.7647 4.73892 37.625C4.77465 37.0111 4.82988 36.3647 4.61225 36.0366C4.07629 35.2343 2.54638 35.8709 1.62714 35.5039C1.56205 35.1509 1.58435 34.7874 1.6921 34.445C2.66656 34.3248 3.8684 34.5197 4.73892 34.3378C4.79985 34.0917 4.78743 33.8331 4.7032 33.5939C3.54683 33.6979 1.3218 33.0937 0.707888 34.0195C0.438286 34.4287 0.425292 35.6436 0.73712 36.0691C1.25034 36.7707 2.78025 36.2445 3.68974 36.5661C3.78325 36.9146 3.77196 37.2829 3.65727 37.625C2.71854 37.8199 1.4225 37.5405 0.581212 37.7647C0.53252 37.9982 0.53252 38.2392 0.581212 38.4728C5.03126 38.6027 10.0368 38.5442 14.607 38.5442C15.4873 38.5442 16.6111 38.7196 17.0789 38.3331C18.0241 38.7651 19.5443 38.5442 21.045 38.5442H22.7892C23.4389 38.5442 24.0431 38.6319 24.5368 38.5767C24.6299 38.5798 24.7219 38.5549 24.8007 38.5051C24.8795 38.4552 24.9414 38.3829 24.9785 38.2974C26.0115 38.7943 27.6843 38.5442 29.2012 38.5442H38.5626C39.4233 38.5442 40.466 38.7066 40.911 38.3331C41.84 38.6417 43.7045 38.7748 44.5263 38.2616C44.6976 38.4101 44.9067 38.5079 45.1305 38.5442C46.5207 38.7489 48.3429 38.4565 49.7624 38.4728C49.8761 38.2064 49.8079 37.7452 49.8241 37.3749H51.9192C51.864 38.9632 53.9721 38.6059 55.3169 38.5442C58.5878 38.3981 62.1901 38.7099 65.1167 38.4728C65.1638 38.2391 65.1638 37.9983 65.1167 37.7647C63.9149 37.5308 62.2291 37.8134 60.8908 37.6575ZM9.5885 34.4093C10.2836 34.471 11.1022 34.2826 11.6186 34.4807C11.8005 34.8055 11.6966 35.4909 11.6186 35.858C11.0112 35.9911 10.1245 35.8969 9.55603 35.8937C9.56252 35.3902 9.53653 34.8543 9.5885 34.406V34.4093ZM35.3501 37.4463C34.9538 37.9888 34.1612 37.5535 33.3849 37.6607V34.445C34.0346 34.5619 35.1454 34.0455 35.4475 34.7958C35.6164 35.2246 35.5775 37.1378 35.3501 37.4431V37.4463ZM51.916 36.4914H49.8209C49.9216 35.7605 49.548 34.8672 50.0125 34.5164C50.477 34.1656 51.3313 34.3898 51.8218 34.5489C52.1109 35.0264 51.8543 35.767 51.9127 36.4881L51.916 36.4914Z" fill="white"/>
<path d="M35.7658 10.6551C35.977 9.85927 36.2531 8.8913 36.776 8.46254C37.4647 7.90709 38.6665 7.92009 39.7611 7.93308C40.7811 7.93308 41.8725 8.23841 42.9022 8.14421C43.7889 8.06626 44.5035 7.74144 45.2181 7.93308C44.8121 8.63794 43.8312 8.50477 43.4089 9.17065C43.2173 9.47273 43.1945 10.0444 43.1263 10.4407C42.9883 11.2477 42.5983 11.9902 42.0122 12.5618C42.0122 12.6008 41.9764 12.6495 42.0122 12.5975C42.4715 12.2572 42.8424 11.8116 43.0938 11.2982C43.3244 10.7688 43.3277 10.0834 43.6005 9.56693C44.0748 8.66718 45.5202 8.84258 45.6631 7.618C45.2376 7.38738 44.7374 7.56928 44.2339 7.65698C43.7226 7.7608 43.203 7.81842 42.6813 7.82914C42.1994 7.78264 41.7217 7.70013 41.2521 7.58227C39.6605 7.30293 37.2633 7.33216 36.396 8.36184C36.1184 8.78318 35.9151 9.24902 35.7951 9.73909C35.5924 10.2598 35.4645 10.8066 35.415 11.3632C35.6944 11.2755 35.6976 10.8987 35.7658 10.6551Z" fill="white"/>
</g>
<defs>
<clipPath id="clip0_1697_3492">
<rect width="65" height="38.238" fill="white" transform="translate(0.5 0.380981)"/>
</clipPath>
</defs>
</svg>
