<svg width="102" height="31" viewBox="0 0 102 31" fill="none" xmlns="http://www.w3.org/2000/svg">
<path d="M72.8802 0.908535C74.7186 1.48083 75.1186 2.60333 75.5649 4.97648C75.9848 7.18611 74.8026 7.48663 74.1198 7.48663C74.0557 7.48663 73.9961 7.48663 73.9453 7.48663C75.302 7.76283 77.4166 9.41785 75.6489 10.5801C75.4594 10.7042 75.2589 10.8107 75.0501 10.8983H71.3357C71.422 10.6828 71.4322 10.4443 71.3647 10.2221C71.2972 9.99999 71.1561 9.80749 70.9645 9.67638C71.7029 9.87566 72.4625 9.98618 73.2271 10.0056C73.9917 10.0056 74.7054 9.83547 74.9109 9.25654C75.4014 7.86005 72.1157 7.7783 72.1157 7.7783C71.3047 7.70096 70.5822 7.66561 69.9414 7.66561C65.1222 7.66561 64.8018 9.58578 64.8018 9.58578C64.72 10.4895 63.4053 10.7149 62.1126 10.7149C61.2524 10.707 60.394 10.6331 59.5451 10.4939C60.0321 10.5509 60.5219 10.5804 61.0123 10.5823C63.4429 10.5823 64.1455 9.75371 64.1455 9.75371C64.5388 7.56175 68.0102 7.21484 70.1646 7.21484C71.1567 7.21484 71.8704 7.28997 71.8704 7.28997C70.4883 6.94218 69.0662 6.77872 67.6412 6.80385C66.2232 6.80654 64.8073 6.91437 63.4053 7.12646V6.79722L62.338 6.6315C63.5159 6.3907 64.7154 6.27223 65.9176 6.27796C67.4356 6.29212 68.9498 6.43032 70.4452 6.69116C71.7422 6.90107 72.794 7.1132 73.5011 7.1132C73.6994 7.11973 73.8973 7.09283 74.0867 7.03365C75.4854 6.5409 75.0744 5.80067 75.0744 5.80067C71.7864 5.06266 70.7192 3.99319 70.7192 3.99319C70.7192 3.99319 70.3148 3.24192 71.0573 3.24192C71.2492 3.24868 71.4393 3.28062 71.6229 3.33693C72.7589 3.62788 73.9115 3.84925 75.0744 3.99982C74.4115 1.20684 71.9522 1.20684 71.9522 1.20684C71.5909 1.11466 71.2201 1.06498 70.8473 1.0588C67.7539 1.0588 68.8388 5.2328 68.8388 5.2328C68.4521 4.9124 67.8179 1.99126 69.2365 0.917376C69.2365 0.917376 69.7005 -0.0217198 72.889 0.917376" fill="white"/>
<path d="M72.4453 16.8931C72.5271 16.8621 72.7502 16.7936 72.779 16.7848L72.4453 16.8931ZM80.4022 12.2926L75.5653 12.4561C78.197 12.7831 78.2788 13.5234 78.2788 13.5234L78.0313 15.9054C77.8832 15.9054 77.7308 15.8899 77.5739 15.8899C75.8261 15.8899 73.6098 16.5263 72.779 16.7848H72.8011C73.506 16.613 74.23 16.5321 74.9555 16.5439C75.9322 16.5506 76.9066 16.6416 77.8678 16.8157C77.3949 16.7737 78.4445 16.8975 78.4445 16.8975H78.6257C80.6298 16.8975 80.0796 15.5562 79.841 14.7586C79.62 13.9984 80.2962 12.5357 80.4022 12.328V12.3036" fill="white"/>
<path d="M59.7704 11.3468C57.0636 11.3468 56.0936 13.4416 56.0936 13.4416H59.0501C59.0501 13.4416 59.6975 12.0539 61.0255 12.0539C61.5905 12.078 62.1344 12.2755 62.5833 12.6196C64.9675 14.2636 63.3235 15.4126 62.338 16.4003C61.8828 16.8555 60.2035 16.977 58.5264 16.977C56.5687 16.977 54.6131 16.8113 54.6131 16.8113L54.1204 17.22C56.2571 17.3858 57.8525 17.441 59.0479 17.441C59.7911 17.4383 60.5334 17.3904 61.2708 17.2974C62.1038 17.1374 62.8719 16.7372 63.4804 16.1462C66.3154 13.3112 62.3314 11.8727 62.3314 11.8727C61.5156 11.5386 60.6451 11.3581 59.7638 11.3402" fill="white"/>
<path d="M70.2268 10.9756C69.9793 11.2231 68.7463 11.3866 68.7463 11.3866C63.1604 11.3866 65.6241 13.0305 65.3789 14.7563C65.3615 14.9775 65.2984 15.1928 65.1934 15.3883C65.0884 15.5838 64.9439 15.7554 64.769 15.892L66.3644 15.249C66.5323 15.0789 66.5279 14.8579 66.5279 14.2635C66.5279 13.3797 67.2593 13.1432 68.0746 13.1432C68.8074 13.1712 69.533 13.2991 70.2312 13.5233V10.9756" fill="white"/>
<path d="M89.4992 17.441L100.141 17.1891C100.141 17.1891 102.662 16.8864 100.947 14.5176C100.947 14.5176 96.106 9.67631 93.4346 14.2657C93.4346 14.2657 95.8652 12.7521 96.8131 14.869C96.8131 14.869 97.476 15.7263 96.1082 16.3317C96.1082 16.3317 94.04 17.2399 89.5014 17.4366" fill="white"/>
<path d="M86.6531 9.49304C86.6531 9.49304 93.4477 11.1436 94.2675 11.9634C94.2675 11.9634 92.6545 14.1841 92.6545 14.436C92.6545 14.436 90.7365 13.2251 89.119 13.4262C89.119 13.4262 94.8177 12.2153 86.6487 9.49304" fill="white"/>
<path d="M76.1794 7.8689L81.7985 10.1647C81.7985 10.1647 82.2868 8.397 84.0943 9.09083C84.0943 9.09083 85.756 9.53276 85.3162 10.7525C85.3162 10.7525 84.1429 11.6363 81.1621 11.0928C82.2744 11.6257 83.544 11.7303 84.7285 11.3866C84.7285 11.3866 87.3182 10.8497 85.3162 8.84556C85.3162 8.84556 83.7518 7.40488 81.4074 8.84556C81.4074 8.84556 80.3821 8.21139 76.1794 7.8689Z" fill="white"/>
<path d="M81.0649 14.1708L83.6546 14.3674C83.6546 14.3674 84.8279 12.5113 86.8785 13.1455C86.8785 13.1455 88.7368 13.731 87.8065 15.881C87.8065 15.881 87.6607 18.5679 80.0397 17.5427L79.5005 18.0796C79.5005 18.0796 84.3882 18.5679 86.2929 18.0796C86.2929 18.0796 88.0032 17.8365 88.4429 16.4688C88.4429 16.4688 90.3962 13.1543 86.5868 11.9722C86.5868 11.9722 82.8304 11.1413 81.0627 14.1818" fill="white"/>
<path d="M91.934 24.9428C91.9931 25.0162 92.0687 25.0746 92.1548 25.113C92.2409 25.1514 92.3348 25.1688 92.4289 25.1638H96.2428L97.5398 19.0652H101.349L98.9186 30.5001H95.0982L95.7611 27.453H89.6581C89.3628 27.4571 89.0705 27.3944 88.8029 27.2696C88.5604 27.1569 88.3466 26.9907 88.1776 26.7834C88.011 26.572 87.896 26.3246 87.8417 26.0609C87.7829 25.7686 87.7882 25.4671 87.8572 25.177L89.1521 19.0652H92.9725L91.8434 24.4081C91.8158 24.4997 91.8105 24.5966 91.8278 24.6908C91.8451 24.7849 91.8845 24.8736 91.9428 24.9494" fill="white"/>
<path d="M91.934 24.9428C91.9931 25.0162 92.0687 25.0746 92.1548 25.113C92.2409 25.1514 92.3348 25.1688 92.4289 25.1638H96.2428L97.5398 19.0652H101.349L98.9186 30.5001H95.0982L95.7611 27.453H89.6581C89.3628 27.4571 89.0705 27.3944 88.8029 27.2696C88.5604 27.1569 88.3466 26.9907 88.1776 26.7834C88.011 26.572 87.896 26.3246 87.8417 26.0609C87.7829 25.7686 87.7882 25.4671 87.8572 25.177L89.1521 19.0652H92.9725L91.8434 24.4081C91.8158 24.4997 91.8105 24.5966 91.8278 24.6908C91.8451 24.7849 91.8845 24.8736 91.9428 24.9494" fill="white"/>
<path d="M83.1596 22.1033C83.1872 22.0113 83.1926 21.9141 83.1753 21.8196C83.158 21.7251 83.1185 21.636 83.0602 21.5597C83.0008 21.4867 82.925 21.4287 82.839 21.3903C82.7531 21.3519 82.6593 21.3343 82.5652 21.3388H79.5159C79.2999 21.3396 79.0913 21.418 78.9282 21.5597C78.7569 21.697 78.6364 21.8875 78.5857 22.1011L78.1128 24.3969C78.0852 24.4889 78.0799 24.5862 78.0972 24.6807C78.1145 24.7751 78.1539 24.8642 78.2122 24.9405C78.2712 25.0141 78.3469 25.0725 78.433 25.1109C78.5191 25.1494 78.6131 25.1667 78.7072 25.1615H81.7565L81.2615 27.4462H75.9253C75.6301 27.4501 75.3378 27.3874 75.0701 27.2628C74.8277 27.15 74.6145 26.983 74.447 26.7745C74.28 26.5625 74.165 26.3142 74.1112 26.0497C74.0516 25.7575 74.0568 25.4558 74.1266 25.1659L74.9331 21.3542C75.0072 21.0408 75.1334 20.742 75.3066 20.4704C75.4823 20.1893 75.7024 19.9386 75.9584 19.728C76.2083 19.5236 76.4886 19.3595 76.7892 19.2418C77.0869 19.122 77.4053 19.062 77.7261 19.0651H85.3516C85.6459 19.0604 85.9375 19.1224 86.2045 19.2463C86.4468 19.3603 86.6605 19.5271 86.8298 19.7346C86.9981 19.945 87.1133 20.1928 87.1657 20.4571C87.2259 20.7493 87.2207 21.0511 87.1502 21.341L85.8554 27.4484H82.0415L83.1707 22.1055" fill="white"/>
<path d="M83.1596 22.1033C83.1872 22.0113 83.1926 21.9141 83.1753 21.8196C83.158 21.7251 83.1185 21.636 83.0602 21.5597C83.0008 21.4867 82.925 21.4287 82.839 21.3903C82.7531 21.3519 82.6593 21.3343 82.5652 21.3388H79.5159C79.2999 21.3396 79.0913 21.418 78.9282 21.5597C78.7569 21.697 78.6364 21.8875 78.5857 22.1011L78.1128 24.3969C78.0852 24.4889 78.0799 24.5862 78.0972 24.6807C78.1145 24.7751 78.1539 24.8642 78.2122 24.9405C78.2712 25.0141 78.3469 25.0725 78.433 25.1109C78.5191 25.1494 78.6131 25.1667 78.7072 25.1615H81.7565L81.2615 27.4462H75.9253C75.6301 27.4501 75.3378 27.3874 75.0701 27.2628C74.8277 27.15 74.6145 26.983 74.447 26.7745C74.28 26.5625 74.165 26.3142 74.1112 26.0497C74.0516 25.7575 74.0568 25.4558 74.1266 25.1659L74.9331 21.3542C75.0072 21.0408 75.1334 20.742 75.3066 20.4704C75.4823 20.1893 75.7024 19.9386 75.9584 19.728C76.2083 19.5236 76.4886 19.3595 76.7892 19.2418C77.0869 19.122 77.4053 19.062 77.7261 19.0651H85.3516C85.6459 19.0604 85.9375 19.1224 86.2045 19.2463C86.4468 19.3603 86.6605 19.5271 86.8298 19.7346C86.9981 19.945 87.1133 20.1928 87.1657 20.4571C87.2259 20.7493 87.2207 21.0511 87.1502 21.341L85.8554 27.4484H82.0415L83.1707 22.1055" fill="white"/>
<path d="M47.3279 22.1011C47.355 22.0094 47.36 21.9126 47.3428 21.8186C47.3255 21.7245 47.2863 21.6359 47.2285 21.5597C47.1691 21.4867 47.0933 21.4287 47.0073 21.3903C46.9214 21.3519 46.8276 21.3343 46.7335 21.3388H43.682C43.4666 21.3395 43.2587 21.418 43.0965 21.5597C42.9246 21.6964 42.8039 21.8872 42.754 22.1011L42.2811 24.3969C42.2525 24.4887 42.2464 24.586 42.2633 24.6806C42.2803 24.7752 42.3197 24.8643 42.3783 24.9405C42.4378 25.0141 42.5138 25.0725 42.6003 25.1109C42.6867 25.1493 42.7811 25.1667 42.8755 25.1614H50.4988L50.0104 27.444H40.1002C39.805 27.4481 39.5126 27.3854 39.2451 27.2606C39.0026 27.1479 38.7887 26.9817 38.6197 26.7745C38.4538 26.5629 38.3396 26.3155 38.2861 26.0519C38.2254 25.7599 38.2299 25.4581 38.2994 25.1681L39.1081 21.352C39.1811 21.0382 39.3075 20.7393 39.4815 20.4682C39.6547 20.1937 39.8711 19.9489 40.1223 19.7434C40.372 19.5382 40.6524 19.3735 40.9531 19.2551C41.2483 19.1339 41.5643 19.0716 41.8834 19.0717H49.5066C49.8017 19.0668 50.094 19.1287 50.3618 19.2529C50.6036 19.3628 50.8179 19.525 50.9893 19.7279C51.1559 19.9394 51.2709 20.1868 51.3252 20.4505C51.3843 20.7427 51.3791 21.0444 51.3097 21.3344L50.6689 24.3836H46.8573L47.3301 22.0967" fill="white"/>
<path d="M47.3279 22.1011C47.355 22.0094 47.36 21.9126 47.3428 21.8186C47.3255 21.7245 47.2863 21.6359 47.2285 21.5597C47.1691 21.4867 47.0933 21.4287 47.0073 21.3903C46.9214 21.3519 46.8276 21.3343 46.7335 21.3388H43.682C43.4666 21.3395 43.2587 21.418 43.0965 21.5597C42.9246 21.6964 42.8039 21.8872 42.754 22.1011L42.2811 24.3969C42.2525 24.4887 42.2464 24.586 42.2633 24.6806C42.2803 24.7752 42.3197 24.8643 42.3783 24.9405C42.4378 25.0141 42.5138 25.0725 42.6003 25.1109C42.6867 25.1493 42.7811 25.1667 42.8755 25.1614H50.4988L50.0104 27.444H40.1002C39.805 27.4481 39.5126 27.3854 39.2451 27.2606C39.0026 27.1479 38.7887 26.9817 38.6197 26.7745C38.4538 26.5629 38.3396 26.3155 38.2861 26.0519C38.2254 25.7599 38.2299 25.4581 38.2994 25.1681L39.1081 21.352C39.1811 21.0382 39.3075 20.7393 39.4815 20.4682C39.6547 20.1937 39.8711 19.9489 40.1223 19.7434C40.372 19.5382 40.6524 19.3735 40.9531 19.2551C41.2483 19.1339 41.5643 19.0716 41.8834 19.0717H49.5066C49.8017 19.0668 50.094 19.1287 50.3618 19.2529C50.6036 19.3628 50.8179 19.525 50.9893 19.7279C51.1559 19.9394 51.2709 20.1868 51.3252 20.4505C51.3843 20.7427 51.3791 21.0444 51.3097 21.3344L50.6689 24.3836H46.8573L47.3301 22.0967" fill="white"/>
<path d="M28.6566 24.9428C28.7157 25.0162 28.7914 25.0745 28.8774 25.1129C28.9635 25.1514 29.0575 25.1688 29.1516 25.1637H36.777L36.2887 27.4463H26.3763C26.0817 27.4505 25.7901 27.3878 25.5233 27.2629C25.28 27.1516 25.0659 26.9852 24.898 26.7768C24.7314 26.5653 24.6164 26.3179 24.5622 26.0542C24.5022 25.7621 24.5075 25.4603 24.5776 25.1704L25.3864 21.3543C25.4585 21.0402 25.5849 20.7411 25.7598 20.4705C25.9322 20.196 26.1478 19.9513 26.3984 19.7457C26.6481 19.5405 26.9284 19.3757 27.2292 19.2574C27.5245 19.1366 27.8404 19.0744 28.1594 19.074H38.0719L37.5835 21.3543H29.9603C29.7442 21.3552 29.5356 21.4336 29.3725 21.5753C29.2015 21.7128 29.081 21.9032 29.03 22.1166L28.5572 24.4125C28.5296 24.5045 28.5242 24.6017 28.5415 24.6962C28.5588 24.7907 28.5983 24.8797 28.6566 24.956" fill="white"/>
<path d="M28.6566 24.9428C28.7157 25.0162 28.7914 25.0745 28.8774 25.1129C28.9635 25.1514 29.0575 25.1688 29.1516 25.1637H36.777L36.2887 27.4463H26.3763C26.0817 27.4505 25.7901 27.3878 25.5233 27.2629C25.28 27.1516 25.0659 26.9852 24.898 26.7768C24.7314 26.5653 24.6164 26.3179 24.5622 26.0542C24.5022 25.7621 24.5075 25.4603 24.5776 25.1704L25.3864 21.3543C25.4585 21.0402 25.5849 20.7411 25.7598 20.4705C25.9322 20.196 26.1478 19.9513 26.3984 19.7457C26.6481 19.5405 26.9284 19.3757 27.2292 19.2574C27.5245 19.1366 27.8404 19.0744 28.1594 19.074H38.0719L37.5835 21.3543H29.9603C29.7442 21.3552 29.5356 21.4336 29.3725 21.5753C29.2015 21.7128 29.081 21.9032 29.03 22.1166L28.5572 24.4125C28.5296 24.5045 28.5242 24.6017 28.5415 24.6962C28.5588 24.7907 28.5983 24.8797 28.6566 24.956" fill="white"/>
<path d="M19.88 22.1034C19.9086 22.0116 19.9147 21.9143 19.8978 21.8197C19.8809 21.7251 19.8414 21.636 19.7828 21.5598C19.723 21.4866 19.6469 21.4285 19.5605 21.3901C19.4742 21.3517 19.38 21.3342 19.2856 21.3388H16.2363C16.0209 21.3396 15.813 21.4181 15.6508 21.5598C15.4789 21.697 15.3577 21.8874 15.3061 22.1012L14.8332 24.397C14.8062 24.4891 14.8011 24.5862 14.8183 24.6806C14.8356 24.775 14.8748 24.864 14.9326 24.9406C14.9917 25.014 15.0674 25.0723 15.1535 25.1107C15.2395 25.1492 15.3335 25.1666 15.4276 25.1615H18.4791L17.9908 27.4441H12.6545C12.3593 27.4482 12.0669 27.3855 11.7994 27.2607C11.5566 27.1474 11.3428 26.9804 11.174 26.7723C11.0078 26.5598 10.8929 26.3118 10.8382 26.0476C10.7796 25.7553 10.7849 25.4538 10.8536 25.1637L11.6624 21.3521C11.7345 21.038 11.8609 20.7389 12.0358 20.4682C12.2096 20.1942 12.4259 19.9495 12.6766 19.7435C12.927 19.5399 13.2072 19.376 13.5074 19.2574C13.8026 19.1362 14.1186 19.0739 14.4377 19.074H22.0631C22.3575 19.0693 22.649 19.1313 22.916 19.2552C23.1584 19.3692 23.372 19.536 23.5414 19.7435C23.7081 19.9546 23.8224 20.2022 23.875 20.466C23.9361 20.758 23.9316 21.0599 23.8618 21.3499L22.5647 27.4573H18.7531L19.88 22.1144" fill="white"/>
<path d="M19.88 22.1034C19.9086 22.0116 19.9147 21.9143 19.8978 21.8197C19.8809 21.7251 19.8414 21.636 19.7828 21.5598C19.723 21.4866 19.6469 21.4285 19.5605 21.3901C19.4742 21.3517 19.38 21.3342 19.2856 21.3388H16.2363C16.0209 21.3396 15.813 21.4181 15.6508 21.5598C15.4789 21.697 15.3577 21.8874 15.3061 22.1012L14.8332 24.397C14.8062 24.4891 14.8011 24.5862 14.8183 24.6806C14.8356 24.775 14.8748 24.864 14.9326 24.9406C14.9917 25.014 15.0674 25.0723 15.1535 25.1107C15.2395 25.1492 15.3335 25.1666 15.4276 25.1615H18.4791L17.9908 27.4441H12.6545C12.3593 27.4482 12.0669 27.3855 11.7994 27.2607C11.5566 27.1474 11.3428 26.9804 11.174 26.7723C11.0078 26.5598 10.8929 26.3118 10.8382 26.0476C10.7796 25.7553 10.7849 25.4538 10.8536 25.1637L11.6624 21.3521C11.7345 21.038 11.8609 20.7389 12.0358 20.4682C12.2096 20.1942 12.4259 19.9495 12.6766 19.7435C12.927 19.5399 13.2072 19.376 13.5074 19.2574C13.8026 19.1362 14.1186 19.0739 14.4377 19.074H22.0631C22.3575 19.0693 22.649 19.1313 22.916 19.2552C23.1584 19.3692 23.372 19.536 23.5414 19.7435C23.7081 19.9546 23.8224 20.2022 23.875 20.466C23.9361 20.758 23.9316 21.0599 23.8618 21.3499L22.5647 27.4573H18.7531L19.88 22.1144" fill="white"/>
<path d="M4.26691 27.4462H0.455288L1.75235 21.3454C1.82448 21.0313 1.95085 20.7322 2.12577 20.4615C2.29886 20.187 2.51526 19.9422 2.76657 19.7368C3.0167 19.5327 3.29697 19.3687 3.59739 19.2507C3.89256 19.1295 4.20858 19.0672 4.52765 19.0673H10.6262L10.1379 21.3476H6.32629C6.11037 21.3492 5.90205 21.4275 5.73853 21.5686C5.56749 21.707 5.44706 21.8981 5.39604 22.1121L4.26691 27.455" fill="white"/>
<path d="M4.26691 27.4462H0.455288L1.75235 21.3454C1.82448 21.0313 1.95085 20.7322 2.12577 20.4615C2.29886 20.187 2.51526 19.9422 2.76657 19.7368C3.0167 19.5327 3.29697 19.3687 3.59739 19.2507C3.89256 19.1295 4.20858 19.0672 4.52765 19.0673H10.6262L10.1379 21.3476H6.32629C6.11037 21.3492 5.90205 21.4275 5.73853 21.5686C5.56749 21.707 5.44706 21.8981 5.39604 22.1121L4.26691 27.455" fill="white"/>
<path d="M8.73075 14.6988C8.79256 14.3257 8.92532 13.9679 9.12185 13.6448C9.3708 13.2309 9.66542 13.0246 10.0057 13.0261H11.9789C11.9789 13.225 11.9789 13.5056 11.9966 13.8613V14.6988H8.73075ZM23.8623 17.1957V17.178C24.1712 17.1482 24.4572 17.0021 24.6622 16.7692C24.871 16.5439 24.9863 16.2477 24.9848 15.9406C24.9848 16.0879 24.9907 13.3266 25.0025 7.65668V2.88828C24.6675 2.8827 24.3349 2.94502 24.0246 3.07148C23.7143 3.19794 23.4329 3.38592 23.1972 3.62409C22.9573 3.85122 22.7669 4.12549 22.638 4.42969C22.5091 4.73388 22.4445 5.06144 22.4482 5.3918L22.4327 14.6723L14.5178 14.6855V8.84105C14.5178 9.41113 14.07 9.85306 13.1743 10.1668C12.512 10.3998 11.8149 10.5186 11.1127 10.5182H9.97256C9.45119 10.5162 8.93655 10.636 8.46968 10.8681C8.00281 11.1002 7.59661 11.4381 7.28344 11.855C6.64083 12.6761 6.24261 13.6617 6.13442 14.6988H4.51918L3.04093 17.2089L23.8623 17.1957Z" fill="white"/>
<path d="M8.73075 14.6988C8.79256 14.3257 8.92532 13.9679 9.12185 13.6448C9.3708 13.2309 9.66542 13.0246 10.0057 13.0261H11.9789C11.9789 13.225 11.9789 13.5056 11.9966 13.8613V14.6988H8.73075ZM23.8623 17.1957V17.178C24.1712 17.1482 24.4572 17.0021 24.6622 16.7692C24.871 16.5439 24.9863 16.2477 24.9848 15.9406C24.9848 16.0879 24.9907 13.3266 25.0025 7.65668V2.88828C24.6675 2.8827 24.3349 2.94502 24.0246 3.07148C23.7143 3.19794 23.4329 3.38592 23.1972 3.62409C22.9573 3.85122 22.7669 4.12549 22.638 4.42969C22.5091 4.73388 22.4445 5.06144 22.4482 5.3918L22.4327 14.6723L14.5178 14.6855V8.84105C14.5178 9.41113 14.07 9.85306 13.1743 10.1668C12.512 10.3998 11.8149 10.5186 11.1127 10.5182H9.97256C9.45119 10.5162 8.93655 10.636 8.46968 10.8681C8.00281 11.1002 7.59661 11.4381 7.28344 11.855C6.64083 12.6761 6.24261 13.6617 6.13442 14.6988H4.51918L3.04093 17.2089L23.8623 17.1957Z" fill="white"/>
<path d="M73.6998 9.23671C73.5549 9.09243 73.3823 8.97892 73.1925 8.90298C73.0026 8.82704 72.7994 8.79023 72.595 8.79478H69.4816C68.9751 8.77836 68.4729 8.89152 68.0224 9.12353C67.5719 9.35554 67.1881 9.69872 66.9074 10.1206V7.70764L63.805 9.46209V13.8814H62.1014L60.2961 16.9417H66.9251V11.8507H71.035V16.9528H74.1705V10.3239C74.1731 10.1216 74.1338 9.92095 74.0551 9.73461C73.9764 9.54827 73.8599 9.38024 73.7131 9.24113" fill="white"/>
<path d="M73.6998 9.23671C73.5549 9.09243 73.3823 8.97892 73.1925 8.90298C73.0026 8.82704 72.7994 8.79023 72.595 8.79478H69.4816C68.9751 8.77836 68.4729 8.89152 68.0224 9.12353C67.5719 9.35554 67.1881 9.69872 66.9074 10.1206V7.70764L63.805 9.46209V13.8814H62.1014L60.2961 16.9417H66.9251V11.8507H71.035V16.9528H74.1705V10.3239C74.172 10.1199 74.131 9.91779 74.0499 9.73058C73.9689 9.54338 73.8496 9.37516 73.6998 9.23671Z" fill="white"/>
<path d="M52.0679 2.23661C51.923 2.09234 51.7504 1.97883 51.5606 1.90289C51.3707 1.82695 51.1675 1.79014 50.963 1.79469C50.7613 1.79271 50.5611 1.83076 50.3741 1.90661C50.1871 1.98247 50.0171 2.09462 49.8737 2.23661C49.7242 2.37418 49.6055 2.54171 49.5251 2.72827C49.4448 2.91483 49.4047 3.11623 49.4074 3.31933C49.4047 3.52211 49.4449 3.72317 49.5252 3.90937C49.6056 4.09557 49.7243 4.2627 49.8737 4.39985C50.0168 4.54224 50.1868 4.65467 50.3738 4.73055C50.5609 4.80643 50.7612 4.84424 50.963 4.84178C51.1675 4.84671 51.3709 4.81008 51.5608 4.73411C51.7507 4.65815 51.9232 4.54444 52.0679 4.39985C52.2149 4.26132 52.3315 4.09372 52.4102 3.9077C52.4889 3.72168 52.5281 3.52131 52.5253 3.31933C52.5282 3.11702 52.489 2.91632 52.4103 2.72994C52.3315 2.54356 52.2149 2.37556 52.0679 2.23661Z" fill="white"/>
<path d="M52.0679 2.23661C51.923 2.09234 51.7504 1.97883 51.5606 1.90289C51.3707 1.82695 51.1675 1.79014 50.963 1.79469C50.7613 1.79271 50.5611 1.83076 50.3741 1.90661C50.1871 1.98247 50.0171 2.09462 49.8737 2.23661C49.7242 2.37418 49.6055 2.54171 49.5251 2.72827C49.4448 2.91483 49.4047 3.11623 49.4074 3.31933C49.4047 3.52211 49.4449 3.72317 49.5252 3.90937C49.6056 4.09557 49.7243 4.2627 49.8737 4.39985C50.0168 4.54224 50.1868 4.65467 50.3738 4.73055C50.5609 4.80643 50.7612 4.84424 50.963 4.84178C51.1675 4.84671 51.3709 4.81008 51.5608 4.73411C51.7507 4.65815 51.9232 4.54444 52.0679 4.39985C52.2149 4.26132 52.3315 4.09372 52.4102 3.9077C52.4889 3.72168 52.5281 3.52131 52.5253 3.31933C52.5282 3.11702 52.489 2.91632 52.4103 2.72994C52.3315 2.54356 52.2149 2.37556 52.0679 2.23661Z" fill="white" stroke="white" stroke-width="2.5"/>
<path d="M33.7786 13.8923C33.8522 13.4366 34.0144 12.9997 34.2559 12.6063C34.5608 12.1025 34.921 11.8506 35.3364 11.8506H37.7427C37.7427 12.0959 37.7427 12.4361 37.7648 12.8714V13.8923H33.7786ZM44.2214 13.8923H40.8362V6.74854C40.8362 7.44236 40.2897 7.9793 39.1966 8.35936C38.3897 8.64429 37.54 8.78927 36.6843 8.78803H35.3011C33.9988 8.78803 32.9051 9.33234 32.0197 10.421C31.2387 11.424 30.7569 12.6274 30.6299 13.8923H28.6567L26.8514 16.9526H44.228L44.2214 13.8923Z" fill="white"/>
<path d="M33.7786 13.8923C33.8522 13.4366 34.0144 12.9997 34.2559 12.6063C34.5608 12.1025 34.921 11.8506 35.3364 11.8506H37.7427C37.7427 12.0959 37.7427 12.4361 37.7648 12.8714V13.8923H33.7786ZM44.2214 13.8923H40.8362V6.74854C40.8362 7.44236 40.2897 7.9793 39.1966 8.35936C38.3897 8.64429 37.54 8.78927 36.6843 8.78803H35.3011C33.9988 8.78803 32.9051 9.33234 32.0197 10.421C31.2387 11.424 30.7569 12.6274 30.6299 13.8923H28.6567L26.8514 16.9526H44.228L44.2214 13.8923Z" fill="white"/>
<path d="M61.7061 19.0651H65.5177L64.3908 24.408C64.3622 24.4994 64.3561 24.5963 64.373 24.6906C64.39 24.7848 64.4294 24.8736 64.488 24.9493C64.5474 25.023 64.6235 25.0814 64.71 25.1198C64.7964 25.1582 64.8907 25.1755 64.9852 25.1703H68.0345C68.2501 25.1705 68.4583 25.0919 68.62 24.9493C68.7924 24.8126 68.9138 24.622 68.9647 24.408L70.0917 19.0651H73.9055L72.6084 25.1637C72.5358 25.4776 72.4094 25.7766 72.235 26.0475C72.0618 26.322 71.8454 26.5668 71.5942 26.7723C71.3439 26.9766 71.0637 27.1413 70.7634 27.2606C70.4679 27.3806 70.1521 27.4428 69.8331 27.444H63.1689C62.9334 27.4462 62.6994 27.4073 62.4773 27.3291C62.2754 27.2574 62.0871 27.1521 61.9204 27.0176C61.7051 27.1493 61.4743 27.254 61.2332 27.3291C60.9966 27.4039 60.75 27.4426 60.5018 27.444H53.8221C53.5276 27.4479 53.2361 27.3852 52.9692 27.2606C52.7267 27.148 52.5129 26.9818 52.3439 26.7745C52.1764 26.5636 52.0613 26.316 52.008 26.0519C51.948 25.7598 51.9533 25.458 52.0235 25.1681L53.3183 19.0629H57.1299L56.003 24.4058C55.9755 24.4974 55.9701 24.5943 55.9874 24.6885C56.0047 24.7826 56.0441 24.8713 56.1025 24.9471C56.1615 25.0206 56.2372 25.0789 56.3233 25.1173C56.4093 25.1557 56.5033 25.1731 56.5974 25.1681H59.6467C59.8629 25.1676 60.0716 25.0892 60.2345 24.9471C60.4061 24.8097 60.5273 24.6194 60.5792 24.4058L61.7061 19.0629" fill="white"/>
<path d="M61.7061 19.0651H65.5177L64.3908 24.408C64.3622 24.4994 64.3561 24.5963 64.373 24.6906C64.39 24.7848 64.4294 24.8736 64.488 24.9493C64.5474 25.023 64.6235 25.0814 64.71 25.1198C64.7964 25.1582 64.8907 25.1755 64.9852 25.1703H68.0345C68.2501 25.1705 68.4583 25.0919 68.62 24.9493C68.7924 24.8126 68.9138 24.622 68.9647 24.408L70.0917 19.0651H73.9055L72.6084 25.1637C72.5358 25.4776 72.4094 25.7766 72.235 26.0475C72.0618 26.322 71.8454 26.5668 71.5942 26.7723C71.3439 26.9766 71.0637 27.1413 70.7634 27.2606C70.4679 27.3806 70.1521 27.4428 69.8331 27.444H63.1689C62.9334 27.4462 62.6994 27.4073 62.4773 27.3291C62.2754 27.2574 62.0871 27.1521 61.9204 27.0176C61.7051 27.1493 61.4743 27.254 61.2332 27.3291C60.9966 27.4039 60.75 27.4426 60.5018 27.444H53.8221C53.5276 27.4479 53.2361 27.3852 52.9692 27.2606C52.7267 27.148 52.5129 26.9818 52.3439 26.7745C52.1764 26.5636 52.0613 26.316 52.008 26.0519C51.948 25.7598 51.9533 25.458 52.0235 25.1681L53.3183 19.0629H57.1299L56.003 24.4058C55.9755 24.4974 55.9701 24.5943 55.9874 24.6885C56.0047 24.7826 56.0441 24.8713 56.1025 24.9471C56.1615 25.0206 56.2372 25.0789 56.3233 25.1173C56.4093 25.1557 56.5033 25.1731 56.5974 25.1681H59.6467C59.8629 25.1676 60.0716 25.0892 60.2345 24.9471C60.4061 24.8097 60.5273 24.6194 60.5792 24.4058L61.7061 19.0629" fill="white"/>
<path d="M56.8426 12.708C56.8607 13.6253 56.711 14.5382 56.4007 15.4016C55.9853 16.4637 55.3416 16.9947 54.4695 16.9947C54.1876 17 53.9086 16.9377 53.6556 16.8132C53.4027 16.6887 53.1833 16.5054 53.0156 16.2788C52.6593 15.852 52.4813 15.3044 52.5184 14.7497V10.3194C52.5238 9.91538 52.4455 9.5146 52.2884 9.1423C52.1314 8.77001 51.899 8.43426 51.6058 8.15617C51.3175 7.86452 50.9731 7.63443 50.5932 7.47985C50.2134 7.32526 49.8062 7.24939 49.3962 7.25685V13.8858H47.4075L45.6 16.9461H49.8359C50.1638 17.8337 50.7494 18.6031 51.5174 19.1557C52.2866 19.7019 53.2103 19.9876 54.1535 19.9711C55.3998 19.9711 56.3963 19.5498 57.1432 18.7072C57.9032 17.8475 58.3097 16.7321 58.2811 15.585C58.2811 13.9395 57.8038 12.982 56.8493 12.7124" fill="white"/>
<path d="M56.8426 12.708C56.8607 13.6253 56.711 14.5382 56.4007 15.4016C55.9853 16.4637 55.3416 16.9947 54.4695 16.9947C54.1876 17 53.9086 16.9377 53.6556 16.8132C53.4027 16.6887 53.1833 16.5054 53.0156 16.2788C52.6593 15.852 52.4813 15.3044 52.5184 14.7497V10.3194C52.5238 9.91538 52.4455 9.5146 52.2884 9.1423C52.1314 8.77001 51.899 8.43426 51.6058 8.15617C51.3175 7.86452 50.9731 7.63443 50.5932 7.47985C50.2134 7.32526 49.8062 7.24939 49.3962 7.25685V13.8858H47.4075L45.6 16.9461H49.8359C50.1638 17.8337 50.7494 18.6031 51.5174 19.1557C52.2866 19.7019 53.2103 19.9876 54.1535 19.9711C55.3998 19.9711 56.3963 19.5498 57.1432 18.7072C57.9032 17.8475 58.3097 16.7321 58.2811 15.585C58.2811 13.9395 57.8016 12.9805 56.8426 12.708Z" fill="white"/>
</svg>
